<svg width="62" height="62" fill="none" xmlns="http://www.w3.org/2000/svg"><g opacity=".1" fill="#fff"><path d="M0 0v62h62V0H0zm3.647 3.647h38.651L35.46 14.588H3.647V3.648zm54.706 54.706H3.647V18.235h54.706v40.118zM39.76 14.588l6.838-10.94h11.754v10.94H39.76z"/><path d="M7.294 7.294h3.647v3.647H7.294V7.294zM14.588 7.294h3.647v3.647h-3.647V7.294zM21.882 7.294h3.647v3.647h-3.647V7.294zM40.118 21.882H7.294v10.942h32.824V21.882zm-3.647 7.294H10.94V25.53h25.53v3.647zM43.765 21.882h10.94v3.647h-10.94v-3.647zM43.765 29.177h10.94v3.647h-10.94v-3.647zM7.294 36.47h47.412v3.648H7.294V36.47zM27.353 43.765h27.353v3.647H27.353v-3.647zM27.353 51.059h27.353v3.647H27.353v-3.647zM23.706 43.765H7.294v10.94h16.412v-10.94zm-3.647 7.294H10.94v-3.647h9.118v3.647z"/></g></svg>