<svg width="72" height="72" viewBox="0 0 72 72" fill="none" xmlns="http://www.w3.org/2000/svg"><g opacity="0.1"><path d="M70.0492 42.8301C69.9408 42.8301 69.8324 42.8301 69.8324 42.7217C69.8324 42.6134 69.6157 42.6134 69.3989 42.6134C68.9654 42.505 68.5319 42.505 68.0984 42.505C67.8816 42.505 67.6649 42.505 67.4481 42.3966H67.3397C66.1476 42.2882 64.847 42.0715 63.6549 41.7463C63.3297 41.638 63.0046 41.3128 62.8962 40.9877C63.0046 40.9877 62.8962 40.9877 62.8962 40.9877L62.0292 40.7709C62.4627 37.628 62.246 34.3766 61.5957 31.2337C60.8371 28.0907 59.5365 25.0561 57.8025 22.3467L58.4527 21.6964V21.588C58.4527 21.2629 58.5611 20.8294 58.7779 20.6126C59.7533 19.7456 60.7287 19.0953 61.8124 18.445C62.0292 18.3367 62.246 18.2283 62.4627 18.1199C62.8962 17.9032 63.2214 17.6864 63.6549 17.4696C63.7633 17.3613 63.8716 17.3613 63.98 17.2529C64.0884 17.1445 63.98 17.1445 63.98 17.0361C64.9554 16.2775 65.1722 14.9769 64.4135 14.0015C64.0884 13.568 63.4381 13.2429 62.8962 13.2429C62.3543 13.2429 61.8125 13.4597 61.3789 13.7848L61.2706 13.8932C61.1622 14.0015 61.0538 14.1099 60.9454 14.1099C60.6203 14.4351 60.2952 14.7602 60.0784 15.0853C59.97 15.3021 59.7533 15.4105 59.6449 15.5188C58.8862 16.3859 57.9108 17.2529 56.9354 17.9032C56.7187 18.0115 56.5019 18.1199 56.2852 18.1199C56.1768 18.1199 55.96 18.1199 55.8517 18.0115H55.7433L54.8762 18.5534C54.0092 17.6864 53.0338 16.8194 52.1668 15.9524C48.1568 12.8094 43.1714 10.8586 38.0776 10.3167L37.9693 9.44966V9.55804C37.6441 9.34128 37.5357 9.01615 37.4274 8.69102C37.4274 7.49886 37.4274 6.3067 37.6441 5.00616V4.89778C37.6441 4.68103 37.7525 4.46427 37.7525 4.24751C37.8609 3.814 37.8609 3.38049 37.9693 2.94697V2.29671C38.0776 1.21293 37.2106 0.129144 36.1268 0.0207654C35.4766 -0.0876127 34.8263 0.237521 34.2844 0.779412C33.8509 1.21292 33.6341 1.75482 33.6341 2.29671V2.8386C33.6341 3.27211 33.7425 3.70562 33.8509 4.13913C33.9593 4.35589 33.9593 4.57265 33.9593 4.7894V4.89778C34.176 6.08994 34.176 7.2821 34.176 8.58264C34.0676 8.90777 33.9593 9.23291 33.6341 9.44966V9.66642L33.5258 10.5334C32.3336 10.6418 31.1414 10.8586 29.8409 11.0753C24.7471 12.1591 20.0869 14.8686 16.5104 18.6618L15.8601 18.2283H15.7517C15.6434 18.2283 15.535 18.3367 15.3182 18.3367C15.1015 18.3367 14.8847 18.2283 14.668 18.1199C13.6926 17.3613 12.7171 16.4942 11.9585 15.6272C11.8501 15.4105 11.6334 15.3021 11.525 15.1937C11.1999 14.8686 10.9831 14.5434 10.658 14.2183C10.5496 14.1099 10.4412 14.1099 10.3328 14.0015C10.2245 13.8932 10.2245 13.8932 10.2245 13.8932C9.79094 13.568 9.24905 13.3513 8.70716 13.3513C8.05689 13.3513 7.515 13.568 7.18987 14.1099C6.5396 15.0853 6.75635 16.3859 7.62338 17.1445C7.73176 17.1445 7.73176 17.2529 7.73176 17.2529C7.73176 17.2529 7.94851 17.4696 8.05689 17.4696C8.38202 17.6864 8.81554 17.9032 9.24905 18.1199C9.46581 18.2283 9.68256 18.3367 9.89932 18.445C10.9831 19.0953 12.0669 19.7456 12.9339 20.6126C13.1507 20.8294 13.3674 21.2629 13.259 21.588V21.4796L13.9093 22.1299C13.8009 22.3467 13.6926 22.455 13.5842 22.6718C10.2245 27.9823 8.81554 34.2683 9.79094 40.4458L8.92391 40.6626C8.92391 40.7709 8.81554 40.7709 8.81554 40.7709C8.70716 41.0961 8.38202 41.3128 8.05689 41.5296C6.86473 41.8547 5.67257 42.0715 4.37203 42.1799C4.15528 42.1799 3.93852 42.1799 3.72176 42.2882C3.28825 42.2882 2.85474 42.3966 2.42123 42.3966C2.31285 42.3966 2.20447 42.505 1.98771 42.505C1.87933 42.505 1.87934 42.505 1.77096 42.6134C0.578797 42.8301 -0.17985 43.9139 0.0369061 45.1061C0.253662 46.0815 1.22907 46.7317 2.20447 46.6234C2.42123 46.6234 2.5296 46.6234 2.74636 46.515C2.85474 46.515 2.85474 46.515 2.85474 46.4066C2.85474 46.2982 3.17987 46.4066 3.28825 46.4066C3.72176 46.2982 4.15528 46.0815 4.48041 45.9731C4.69717 45.8647 4.91392 45.7563 5.13068 45.7563H5.23906C6.43122 45.3228 7.515 44.9977 8.81554 44.7809H8.92391C9.24905 44.7809 9.57418 44.8893 9.79094 45.1061C9.89932 45.1061 9.89932 45.2144 9.89932 45.2144L10.8747 45.1061C12.5004 50.0915 15.535 54.535 19.7617 57.7863C20.7371 58.545 21.6042 59.1952 22.6879 59.7371L22.146 60.4958C22.146 60.6041 22.2544 60.6041 22.2544 60.6041C22.4712 60.9293 22.4712 61.3628 22.3628 61.6879C21.9293 62.7717 21.279 63.8555 20.6288 64.8309V64.9393C20.5204 65.156 20.412 65.2644 20.1952 65.4812C19.9785 65.6979 19.7617 66.1314 19.4366 66.5649C19.3282 66.6733 19.3282 66.7817 19.2198 66.8901C19.2198 66.8901 19.2198 66.9985 19.1115 66.9985C18.5696 68.0822 19.0031 69.3828 19.9785 69.9247C20.1952 70.033 20.5204 70.1414 20.7371 70.1414C21.6042 70.1414 22.3628 69.5995 22.7963 68.8409C22.7963 68.8409 22.7963 68.7325 22.9047 68.7325C22.9047 68.6241 23.0131 68.5157 23.1215 68.4074C23.2298 67.9739 23.4466 67.6487 23.555 67.2152L23.7717 66.5649C24.0969 65.3728 24.6387 64.289 25.1806 63.2052C25.3974 62.8801 25.7225 62.6633 26.0477 62.555C26.156 62.555 26.156 62.555 26.156 62.4466L26.5896 61.5795C29.6241 62.7717 32.7671 63.3136 36.0185 63.3136C37.9693 63.3136 39.9201 63.0968 41.8709 62.555C43.063 62.3382 44.2552 61.9047 45.339 61.5795L45.7725 62.3382C45.8809 62.3382 45.8809 62.3382 45.8809 62.4466C46.206 62.555 46.5311 62.7717 46.7479 63.0968C47.2898 64.1806 47.8317 65.2644 48.1568 66.4566V66.5649L48.3736 67.2152C48.4819 67.6487 48.5903 68.0822 48.8071 68.4074C48.9155 68.5157 48.9155 68.6241 49.0238 68.7325C49.0238 68.7325 49.0238 68.8409 49.1322 68.8409C49.5657 69.5995 50.3244 70.1414 51.1914 70.1414C51.5165 70.1414 51.7333 70.033 52.0584 69.9247C52.4919 69.7079 52.9254 69.2744 53.0338 68.7325C53.1422 68.1906 53.1422 67.6487 52.9254 67.1068C52.9254 66.9985 52.8171 66.9985 52.8171 66.9985C52.8171 66.8901 52.7087 66.7817 52.6003 66.6733C52.3836 66.2398 52.1668 65.9147 51.8417 65.5895C51.7333 65.3728 51.6249 65.2644 51.4081 65.0476V64.8309C50.6495 63.8555 50.1076 62.7717 49.6741 61.6879C49.5657 61.3628 49.5657 60.9293 49.7825 60.6041C49.7825 60.4958 49.8909 60.4958 49.8909 60.4958L49.5657 59.6287C55.093 56.269 59.3198 51.0669 61.2706 44.8893L62.1376 44.9977C62.246 44.9977 62.246 44.8893 62.246 44.8893C62.4627 44.6726 62.7879 44.5642 63.113 44.5642H63.2214C64.4135 44.7809 65.6057 45.1061 66.6895 45.5396H66.7978C67.0146 45.648 67.2314 45.7563 67.4481 45.7563C67.8816 45.9731 68.2068 46.1899 68.6403 46.2982C68.7487 46.2982 68.857 46.4066 69.0738 46.4066C69.1822 46.4066 69.1822 46.4066 69.2905 46.515C69.5073 46.6234 69.6157 46.6234 69.8324 46.6234C70.8078 46.6234 71.6749 45.9731 72 45.1061C71.8916 43.9139 71.0246 43.0469 70.0492 42.8301V42.8301ZM38.7279 39.4704L35.8017 40.8793L32.8755 39.4704L32.1168 36.3274L34.176 33.7264H37.4274L39.4866 36.3274L38.7279 39.4704V39.4704ZM56.3935 32.4258C56.9354 34.7018 57.0438 36.9777 56.8271 39.2537L46.5311 36.3274C45.5557 36.1107 45.0138 35.1353 45.2306 34.1599C45.339 33.8347 45.4473 33.618 45.6641 33.4012L53.7925 26.0315C54.9846 27.9823 55.8517 30.1499 56.3935 32.4258V32.4258ZM50.5411 22.0215L41.6541 28.3075C40.8955 28.741 39.8117 28.6326 39.2698 27.8739C39.053 27.6572 38.9447 27.4404 38.9447 27.1153L38.2944 16.1691C43.063 16.711 47.2898 18.7702 50.5411 22.0215V22.0215ZM30.9247 16.4942L33.0922 16.0607L32.5503 26.8985C32.5503 27.8739 31.6833 28.6326 30.7079 28.6326C30.3828 28.6326 30.166 28.5242 29.8409 28.4158L20.8455 22.0215C23.6633 19.3121 27.1314 17.3613 30.9247 16.4942ZM17.7025 26.0315L25.7225 33.1845C26.4812 33.8347 26.5896 34.9185 25.9393 35.6772C25.7225 36.0023 25.5058 36.1107 25.0723 36.2191L14.5596 39.2537C14.2344 34.7018 15.3182 30.0415 17.7025 26.0315V26.0315ZM15.8601 44.3474L26.5896 42.505C27.4566 42.505 28.3236 43.0469 28.432 43.9139C28.5404 44.239 28.5404 44.6726 28.3236 44.9977L24.2052 54.9685C20.412 52.4758 17.3774 48.6825 15.8601 44.3474V44.3474ZM40.462 57.7863C38.9447 58.1114 37.4274 58.3282 35.8017 58.3282C33.5258 58.3282 31.1414 57.8947 28.9739 57.2444L34.2844 47.5988C34.8263 46.9485 35.6933 46.7317 36.452 47.1653C36.7771 47.382 36.9939 47.5988 37.319 47.9239L42.5211 57.3528C41.8709 57.4612 41.2206 57.5696 40.462 57.7863V57.7863ZM53.6841 48.3574C52.0584 50.9585 49.7825 53.2344 47.1814 54.8601L42.9547 44.6726C42.7379 43.8055 43.1714 42.9385 43.9301 42.6134C44.2552 42.505 44.5803 42.3966 44.9055 42.3966L55.7433 44.239C55.2014 45.7563 54.5511 47.1653 53.6841 48.3574Z" fill="white"/></g></svg>
