<svg width="72" height="72" fill="none" xmlns="http://www.w3.org/2000/svg"><g opacity=".1" fill="#fff"><path d="M21.234 25.453h4.22V38.11h-4.22V25.453zM12.797 25.453h4.219V38.11h-4.22V25.453zM38.11 25.453h4.218V38.11H38.11V25.453zM29.672 25.453h4.219V38.11h-4.22V25.453zM54.984 25.453h4.22V38.11h-4.22V25.453zM46.547 25.453h4.219V38.11h-4.22V25.453z"/><path d="m0 24.218.618.617a3.861 3.861 0 0 1 0 5.455L0 30.907v15.64h4.219v8.437h21.234v-8.437h4.219v8.437h38.11v-8.437H72v-15.64l-.618-.617a3.861 3.861 0 0 1 0-5.455l.618-.617v-7.202H0v7.202zm21.234 26.548H8.437v-4.22h12.797v4.22zm42.328 0H33.892v-4.22h29.672v4.22zM4.22 32.58a8.092 8.092 0 0 0 0-10.035v-1.31H67.78v1.31a8.093 8.093 0 0 0 0 10.035v9.748H4.22V32.58z"/></g></svg>