<svg width="65" height="65" fill="none" xmlns="http://www.w3.org/2000/svg">
    <g opacity=".1" fill="#fff">
        <path d="M65 20.947a5.68 5.68 0 0 0-.439-2.198L58.213 3.515A5.698 5.698 0 0 0 52.94 0H12.06a5.698 5.698 0 0 0-5.273 3.515L.438 18.751A5.682 5.682 0 0 0 0 20.947v7.871a5.69 5.69 0 0 0 1.46 3.809A5.69 5.69 0 0 0 0 36.435v7.618a5.69 5.69 0 0 0 1.46 3.808A5.69 5.69 0 0 0 0 51.67v7.617A5.72 5.72 0 0 0 5.713 65h53.574A5.72 5.72 0 0 0 65 59.287V51.67a5.69 5.69 0 0 0-1.46-3.809A5.689 5.689 0 0 0 65 44.053v-7.617a5.69 5.69 0 0 0-1.46-3.809A5.69 5.69 0 0 0 65 28.818v-7.87zM10.303 4.98A1.9 1.9 0 0 1 12.06 3.81h40.88a1.9 1.9 0 0 1 1.757 1.171l4.274 10.254H6.029L10.303 4.98zM61.19 59.287c0 1.05-.854 1.904-1.904 1.904H5.713a1.906 1.906 0 0 1-1.904-1.904V51.67c0-1.05.854-1.904 1.904-1.904h53.574c1.05 0 1.904.854 1.904 1.904v7.617zm0-15.234c0 1.05-.854 1.904-1.904 1.904H5.713a1.906 1.906 0 0 1-1.904-1.904v-7.617c0-1.05.854-1.905 1.904-1.905h53.574c1.05 0 1.904.855 1.904 1.904v7.618zm0-15.235c0 1.05-.854 1.905-1.904 1.905H5.713a1.906 1.906 0 0 1-1.904-1.905v-7.87c0-1.06.855-1.905 1.904-1.905h53.574c1.053 0 1.904.849 1.904 1.904v7.871z"/>
        <path d="M55.478 53.574h-34.53a1.904 1.904 0 0 0 0 3.809h34.53a1.904 1.904 0 0 0 0-3.809zM55.478 22.852h-34.53a1.904 1.904 0 0 0 0 3.808h34.53a1.904 1.904 0 0 0 0-3.808zM9.521 22.852a1.904 1.904 0 0 0-1.904 1.904c0 1.052.853 2.158 1.904 2.158 1.052 0 1.905-1.107 1.905-2.158a1.904 1.904 0 0 0-1.905-1.904zM55.478 38.34h-34.53a1.904 1.904 0 0 0 0 3.808h34.53a1.904 1.904 0 0 0 0-3.808zM9.521 42.148a1.904 1.904 0 1 0 0-3.808 1.904 1.904 0 0 0 0 3.808zM9.521 57.383a1.904 1.904 0 1 0 0-3.809 1.904 1.904 0 0 0 0 3.809z"/>
    </g>
</svg>
