<svg width="72" height="72" fill="none" xmlns="http://www.w3.org/2000/svg"><g opacity=".1" fill="#fff"><path d="M51.5 18.5h-31c-1.1 0-2 .9-2 2v31c0 1.1.9 2 2 2h31c1.1 0 2-.9 2-2v-31c0-1.1-.9-2-2-2zm-2 31h-27V42h4c1.1 0 2-.9 2-2s-.9-2-2-2h-4v-4h8c1.1 0 2-.9 2-2s-.9-2-2-2h-8v-7.5h27v27z"/><path d="M72 30.8c0-1.1-.9-2-2-2h-6.4v-6.3H70c1.1 0 2-.9 2-2s-.9-2-2-2h-6.4v-4.3c0-3.2-2.6-5.8-5.8-5.8h-4.3V2c0-1.1-.9-2-2-2s-2 .9-2 2v6.4h-6.4V2c0-1.1-.9-2-2-2s-2 .9-2 2v6.4h-6.4V2c0-1.1-.9-2-2-2s-2 .9-2 2v6.4h-6.2V2c0-1.1-.9-2-2-2s-2 .9-2 2v6.4h-4.3c-3.2 0-5.8 2.6-5.8 5.8v4.3H2c-1.1 0-2 .9-2 2s.9 2 2 2h6.4v6.4H2c-1.1 0-2 .9-2 2s.9 2 2 2h6.4v6.4H2c-1.1 0-2 .9-2 2s.9 2 2 2h6.4v6.2H2c-1.1 0-2 .9-2 2s.9 2 2 2h6.4v4.3c0 3.2 2.6 5.8 5.8 5.8h4.3V70c0 1.1.9 2 2 2s2-.9 2-2v-6.4h6.4V70c0 1.1.9 2 2 2s2-.9 2-2v-6.4h6.4V70c0 1.1.9 2 2 2s2-.9 2-2v-6.4h6.2V70c0 1.1.9 2 2 2s2-.9 2-2v-6.4h4.3c3.2 0 5.8-2.6 5.8-5.8v-4.3H70c1.1 0 2-.9 2-2s-.9-2-2-2h-6.4v-6.4H70c1.1 0 2-.9 2-2s-.9-2-2-2h-6.4v-6.4H70v.1c1.1 0 2-.9 2-2zm-12.3 27h-.1c0 1-.8 1.8-1.8 1.8H14.2c-1 0-1.8-.8-1.8-1.8V14.2c0-1 .8-1.8 1.8-1.8h43.7c1 0 1.8.8 1.8 1.8v43.6z"/></g></svg>