<svg width="72" height="72" viewBox="0 0 72 72" fill="none" xmlns="http://www.w3.org/2000/svg"><g opacity="0.1"><path d="M71.722 34.9535L54.847 5.42222C54.4715 4.76494 53.7726 4.35938 53.0156 4.35938H18.9844C18.2274 4.35938 17.5286 4.76508 17.153 5.42222L0.278016 34.9535C-0.0926719 35.6019 -0.0926719 36.398 0.278016 37.0465L17.153 66.5778C17.5285 67.2351 18.2274 67.6406 18.9844 67.6406H53.0156C53.7726 67.6406 54.4715 67.2351 54.847 66.5778L71.722 37.0465C72.0927 36.3981 72.0927 35.602 71.722 34.9535ZM51.7915 63.4219H20.2085L4.53895 36L20.2085 8.57812H51.7915L67.4612 36L51.7915 63.4219Z" fill="white"/><rect x="22" y="24" width="28" height="24" stroke="white" stroke-width="4" stroke-dasharray="4 4"/></g></svg>
