<svg width="64" height="64" fill="none" xmlns="http://www.w3.org/2000/svg"><g opacity=".1" clip-path="url(#a)" fill="#fff"><path d="M12.468 31.026c1.543 1.545 3.355.98 4.532 1.1a1.875 1.875 0 0 0 0-3.75h-1.88c-.073-.833.294-2.255-.78-3.792 1.076-1.54.708-2.995.78-3.834H17A1.875 1.875 0 0 0 17 17c-1.222.125-2.985-.448-4.532 1.1-2.09 2.093-.27 4.609-1.72 4.609a1.875 1.875 0 0 0 0 3.75c.345 0 .625.28.624.625.088.735-.385 2.46 1.096 3.942zM53.25 45.167a.625.625 0 0 1-.625-.626l.002-1.287a3.748 3.748 0 0 0-3.75-3.754h-1.88a1.875 1.875 0 0 0 0 3.75h1.88c.073.833-.294 2.255.781 3.792-1.076 1.54-.707 2.986-.781 3.833h-1.88a1.875 1.875 0 0 0 0 3.75c1.223-.125 2.983.452 4.533-1.1a3.725 3.725 0 0 0 1.097-2.654l-.002-1.329c0-.345.28-.625.625-.625a1.875 1.875 0 0 0 0-3.75zM39.601 37.625h-26.35a1.875 1.875 0 0 0 0 3.75H39.6a1.875 1.875 0 0 0 0-3.75zM39.601 45.25h-11.35a1.875 1.875 0 0 0 0 3.75H39.6a1.875 1.875 0 0 0 0-3.75zM20.75 45.25h-7.5a1.875 1.875 0 0 0 0 3.75h7.5a1.875 1.875 0 0 0 0-3.75zM24.375 26.375H50.75a1.875 1.875 0 0 0 0-3.75H24.375a1.875 1.875 0 0 0 0 3.75zM52.625 32c0-1.035-.84-1.875-1.875-1.875h-7.5a1.875 1.875 0 0 0 0 3.75h7.5c1.036 0 1.875-.84 1.875-1.875zM24.399 30.125a1.875 1.875 0 0 0 0 3.75H35.75a1.875 1.875 0 0 0 0-3.75H24.4z"/><path d="M62.125 0H1.875C.84 0 0 .84 0 1.875v60.25C0 63.161.84 64 1.875 64h60.25C63.161 64 64 63.16 64 62.125V1.875C64 .84 63.16 0 62.125 0zM60.25 7.625h-3.869V3.75h3.87v3.875zm-11.369 0V3.75h3.75v3.875h-3.75zm-22.6 0 .065-3.875h18.785v3.875h-18.85zM3.752 60.25V3.75h18.845L22.5 9.47a1.875 1.875 0 0 0 1.875 1.906H60.25V60.25H3.75z"/><path d="M17.006 11.375a1.875 1.875 0 0 0 0-3.75h-7.5a1.875 1.875 0 0 0 0 3.75h7.5z"/></g><defs><clipPath id="a"><path fill="#fff" d="M0 0h64v64H0z"/></clipPath></defs></svg>