<svg width="72" height="72" fill="none" xmlns="http://www.w3.org/2000/svg"><g opacity=".1" clip-path="url(#a)" fill="#fff"><path d="M71.722 34.953 54.847 5.423a2.11 2.11 0 0 0-1.831-1.064H18.984a2.11 2.11 0 0 0-1.831 1.063L.278 34.954a2.109 2.109 0 0 0 0 2.093l16.875 29.53a2.109 2.109 0 0 0 1.831 1.064h34.032c.757 0 1.456-.406 1.831-1.063l16.875-29.532c.37-.648.37-1.444 0-2.093zm-19.93 28.469H20.207L4.54 36l15.67-27.422H51.79L67.462 36l-15.67 27.422z"/><path d="M35.928 16c-.552-.017-15.939 7.315-16.14 7.69-.483.904-3.985 16.556-3.78 16.893.12.196 2.643 3.294 5.604 6.883l5.385 6.527 8.862.003 8.863.004 5.638-6.827L56 40.348l-1.974-8.384c-1.086-4.612-2.057-8.462-2.156-8.555-.278-.259-15.643-7.4-15.942-7.409zm.782 3.664 3.626 1.02-3.626 1.018-3.626-1.019 3.626-1.019zm-3.626 1.41 3.396.979-.016 4.575-3.379-1.815v-3.74zm7.252 0v3.74l-3.378 1.814-.016-4.575 3.394-.98zm-8.766 6.243 3.626 1.019-3.626 1.019-3.627-1.02 3.627-1.018zm8.811 0 3.626 1.019-3.626 1.019-3.626-1.02 3.626-1.018zm-12.438 1.409 3.396.977-.016 4.575-3.378-1.813-.002-3.739zm7.253 0v3.74l-3.379 1.812-.015-4.575 3.394-.977zm1.559 0 3.396.977-.016 4.575-3.379-1.813-.001-3.739zm7.252 0v3.74l-3.378 1.812-.016-4.575 3.394-.977zm-13.762 5.858c1.08.037.244 1.09 1.47 1.654 1.307.602 1.577-.91 2.399.245.822 1.156-.732.863-.616 2.262.115 1.399 1.602.87.98 2.137-.62 1.267-1.138-.185-2.33.612-1.191.796.024 1.779-1.418 1.891-1.443.112-.405-1.046-1.712-1.648-1.308-.602-1.578.908-2.4-.247-.82-1.155.734-.861.619-2.26-.116-1.398-1.603-.87-.981-2.136.621-1.267 1.136.184 2.328-.612 1.192-.797-.024-1.78 1.42-1.892.09-.007.17-.009.241-.007zm9.32 1.402c1.928.053.058 1.807 1.818 2.57 1.761.764 1.864-1.755 3.19-.396 1.325 1.358-1.277 1.317-.59 3.064.689 1.746 2.6.035 2.546 1.904-.054 1.87-1.864.056-2.652 1.763-.788 1.707 1.812 1.806.41 3.09-1.402 1.285-1.358-1.236-3.16-.57-1.803.667-.036 2.52-1.966 2.467-1.928-.052-.058-1.806-1.819-2.57-1.76-.764-1.865 1.756-3.19.397-1.326-1.359 1.276-1.316.588-3.062-.688-1.747-2.6-.036-2.545-1.905.054-1.87 1.864-.058 2.652-1.765.788-1.706-1.812-1.806-.41-3.09 1.402-1.285 1.36 1.237 3.162.57 1.803-.667.036-2.52 1.965-2.467zm-9.236.981c-1.171 0-2.12.921-2.12 2.056s.95 2.055 2.12 2.055c1.172.001 2.122-.92 2.122-2.055.001-1.136-.95-2.057-2.122-2.056zm9.034 1.858c-2.341 0-4.24 1.839-4.239 4.108 0 2.269 1.898 4.107 4.239 4.106 2.34 0 4.237-1.838 4.237-4.106s-1.896-4.108-4.237-4.108z"/></g><defs><clipPath id="a"><path fill="#fff" d="M0 0h72v72H0z"/></clipPath></defs></svg>