<svg width="72" height="72" fill="none" xmlns="http://www.w3.org/2000/svg"><g opacity=".1" clip-path="url(#a)" fill="#fff"><path d="M71.722 34.953 54.847 5.423a2.11 2.11 0 0 0-1.831-1.064H18.984a2.11 2.11 0 0 0-1.831 1.063L.278 34.954a2.109 2.109 0 0 0 0 2.093l16.875 29.53a2.109 2.109 0 0 0 1.831 1.064h34.032c.757 0 1.456-.406 1.831-1.063l16.875-29.532c.37-.648.37-1.444 0-2.093zm-19.93 28.469H20.207L4.54 36l15.67-27.422H51.79L67.462 36l-15.67 27.422z"/><path d="M20.25 27 36 22.5 51.75 27 36 31.5 20.25 27zM20.25 28.5 35.171 33v16.5L20.25 45V28.5zM36.829 33l14.92-4.5V45l-14.92 4.5V33z"/></g><defs><clipPath id="a"><path fill="#fff" d="M0 0h72v72H0z"/></clipPath></defs></svg>