<svg width="22" height="20" viewBox="0 0 22 20" fill="none" xmlns="http://www.w3.org/2000/svg">
<line x1="11" y1="1" x2="11" y2="19" stroke="white" stroke-width="2" stroke-linecap="round"/>
<line x1="18" y1="10" x2="14" y2="10" stroke="white" stroke-width="2" stroke-linecap="round"/>
<path d="M21.1271 9.24407C21.5876 9.64284 21.5876 10.3572 21.1271 10.7559L17.6547 13.7632C17.007 14.3241 16 13.864 16 13.0073L16 6.99275C16 6.136 17.007 5.67594 17.6547 6.23682L21.1271 9.24407Z" fill="white"/>
<line x1="1" y1="-1" x2="5" y2="-1" transform="matrix(1 -1.45705e-07 -1.45705e-07 -1 3 9)" stroke="white" stroke-width="2" stroke-linecap="round"/>
<path d="M0.872872 9.24407C0.41241 9.64284 0.41241 10.3572 0.872872 10.7559L4.34535 13.7632C4.99299 14.3241 6 13.864 6 13.0073L6 6.99275C6 6.136 4.99299 5.67594 4.34535 6.23682L0.872872 9.24407Z" fill="white"/>
</svg>
