<svg height="512" viewBox="0 0 140 140" width="512" xmlns="http://www.w3.org/2000/svg"><circle cx="70" cy="70" fill="#509fd7" r="64"/><path d="M133.67 63.48c.22 2.15.33 4.32.33 6.52 0 35.35-28.65 64-64 64-2.19 0-4.36-.11-6.49-.33l-28.33-28.32c-.88-.74-1.46-1.83-1.46-3.07V37.73c0-2.21 1.79-4 4-4h64.56c1.16 0 2.19.5 2.92 1.29z" opacity=".1"/><path d="M102.276 33.732H37.724a4 4 0 0 0-4 4v64.553a4 4 0 0 0 4 4h64.552a4 4 0 0 0 4-4V37.732a4 4 0 0 0-4-4z" fill="#ececec"/><path d="M37.724 53.094h64.552v49.19H37.724z" fill="#304651"/><circle cx="40.46" cy="43.413" fill="#d6b24e" r="2.736"/><circle cx="49.352" cy="43.413" fill="#dc594e" r="2.736"/><circle cx="58.243" cy="43.413" fill="#d6b24e" r="2.736"/><path d="M44.953 69.758H55.41v2H44.953z" fill="#4388b9"/><path d="M52.718 60.894h7.676v2h-7.676z" fill="#e6e7e8"/><path d="M57.247 69.758H85.65v2H57.247z" fill="#db584d"/><path d="M55.11 76.406h16.338v2H55.11z" fill="#4388b9"/><path d="M44.953 76.406h7.981v2h-7.981zm28.68 0h12.63v2h-12.63zm-28.68 6.649h16.612v2H44.953zm18.326 0h16.67v2h-16.67z" fill="#db584d"/><path d="M81.492 83.055h8.912v2h-8.912zm5.783-13.297h7.772v2h-7.772z" fill="#4388b9"/><path d="m49.474 65.955-4.06-4.06 4.06-4.062 1.414 1.414-2.647 2.647 2.647 2.647zm14.164 0-1.414-1.414 2.647-2.647-2.647-2.647 1.414-1.414 4.06 4.061zm-11.54 30.114 4.43-6.272 1.633 1.154-4.429 6.272zm-2.624 1.476-4.06-4.06 4.06-4.062 1.414 1.414-2.647 2.647 2.647 2.647zm12.221 0-1.414-1.414 2.647-2.647-2.647-2.647 1.414-1.414 4.062 4.061z" fill="#e6e7e8"/></svg>