<svg xmlns="http://www.w3.org/2000/svg" viewBox="0 0 512 512" style="enable-background:new 0 0 512 512" xml:space="preserve"><path style="fill:#1e0478" d="M511.999 118.896v22.356c0 8.926-6.646 16.65-15.446 17.967a789.903 789.903 0 0 1-12.112 1.707 106.99 106.99 0 0 1-8.216 19.824 786.598 786.598 0 0 1 7.357 9.774c5.294 7.162 4.526 17.314-1.776 23.628l-15.813 15.802c-6.302 6.314-16.466 7.081-23.628 1.776a804.74 804.74 0 0 1-9.774-7.345 106.357 106.357 0 0 1-19.812 8.204 750.327 750.327 0 0 1-1.719 12.112c-1.318 8.812-9.041 15.446-17.956 15.446h-22.356c-8.926 0-16.65-6.635-17.967-15.446a769.483 769.483 0 0 1-1.707-12.112 106.198 106.198 0 0 1-19.824-8.204 802.166 802.166 0 0 1-9.774 7.345c-7.162 5.305-17.314 4.538-23.628-1.776l-15.802-15.802c-6.314-6.314-7.082-16.466-1.788-23.628a903.203 903.203 0 0 1 7.357-9.774 106.877 106.877 0 0 1-8.204-19.824 763.06 763.06 0 0 1-12.112-1.707c-8.812-1.318-15.446-9.041-15.446-17.967v-22.356c0-8.915 6.635-16.638 15.446-17.956a768.196 768.196 0 0 1 12.112-1.719 107.244 107.244 0 0 1 8.204-19.812 863.647 863.647 0 0 1-7.345-9.774c-5.305-7.162-4.538-17.326 1.776-23.628l15.802-15.813c6.314-6.302 16.466-7.07 23.628-1.776a806.6 806.6 0 0 1 9.774 7.357 106.99 106.99 0 0 1 19.824-8.216 802.489 802.489 0 0 1 1.707-12.112C354.097 6.646 361.82 0 370.747 0h22.356c8.915 0 16.638 6.646 17.956 15.446a788.684 788.684 0 0 1 1.719 12.112 107.221 107.221 0 0 1 19.812 8.216 729.305 729.305 0 0 1 9.786-7.357c7.15-5.294 17.314-4.526 23.617 1.776l15.813 15.813c6.302 6.302 7.07 16.466 1.776 23.616a777.275 777.275 0 0 1-7.357 9.786 107.221 107.221 0 0 1 8.216 19.812c4.091.55 8.147 1.123 12.112 1.719 8.8 1.319 15.446 9.042 15.446 17.957zm-21.772 19.251v-16.134a892.858 892.858 0 0 0-10.943-1.501c-7.265-.951-13.223-6.119-15.16-13.155a84.76 84.76 0 0 0-8.01-19.331c-3.609-6.348-3.048-14.209 1.421-20.03a711.517 711.517 0 0 0 6.669-8.8l-11.401-11.401a780.431 780.431 0 0 0-8.8 6.669c-5.821 4.469-13.682 5.03-20.03 1.421a84.806 84.806 0 0 0-19.331-8.01c-7.047-1.937-12.204-7.895-13.155-15.171a921.16 921.16 0 0 0-1.501-10.932h-16.134a892.858 892.858 0 0 0-1.501 10.943c-.951 7.265-6.108 13.223-13.155 15.16a84.449 84.449 0 0 0-19.319 8.01c-6.36 3.61-14.22 3.048-20.041-1.421a780.431 780.431 0 0 0-8.8-6.669l-11.401 11.401a711.517 711.517 0 0 0 6.669 8.8c4.48 5.821 5.03 13.682 1.421 20.03a84.806 84.806 0 0 0-8.01 19.331c-1.937 7.036-7.884 12.204-15.16 13.155-3.678.481-7.345.985-10.932 1.501v16.134c3.587.516 7.253 1.02 10.932 1.501 7.276.951 13.223 6.108 15.16 13.155a84.449 84.449 0 0 0 8.01 19.319 18.117 18.117 0 0 1-1.409 20.03 685.284 685.284 0 0 0-6.68 8.8l11.401 11.413a907.722 907.722 0 0 0 8.812-6.669 18.098 18.098 0 0 1 20.03-1.421 84.735 84.735 0 0 0 19.319 8.01c7.047 1.937 12.204 7.895 13.155 15.16.481 3.678.985 7.345 1.501 10.932h16.134c.516-3.587 1.02-7.253 1.501-10.932.951-7.265 6.107-13.223 13.155-15.16a84.449 84.449 0 0 0 19.319-8.01c6.36-3.609 14.22-3.059 20.041 1.421a894.565 894.565 0 0 0 8.8 6.669l11.401-11.413a805.172 805.172 0 0 0-6.669-8.8c-4.469-5.81-5.03-13.67-1.421-20.03a84.53 84.53 0 0 0 8.01-19.319c1.937-7.047 7.895-12.204 15.16-13.155a915.32 915.32 0 0 0 10.942-1.501z"/><path style="fill:#9b8ccc" d="M490.227 122.013v16.134c-3.598.516-7.265 1.02-10.943 1.501-7.265.951-13.223 6.108-15.16 13.155a84.449 84.449 0 0 1-8.01 19.319c-3.609 6.36-3.048 14.22 1.421 20.03a814.924 814.924 0 0 1 6.669 8.8l-11.401 11.413a894.565 894.565 0 0 1-8.8-6.669c-5.821-4.48-13.682-5.03-20.041-1.421a84.53 84.53 0 0 1-19.319 8.01c-7.047 1.937-12.204 7.895-13.155 15.16a862.562 862.562 0 0 1-1.501 10.932h-16.134a860.075 860.075 0 0 1-1.501-10.932c-.951-7.265-6.108-13.223-13.155-15.16a84.671 84.671 0 0 1-19.319-8.01 18.098 18.098 0 0 0-20.03 1.421 883.934 883.934 0 0 1-8.812 6.669l-11.401-11.413a687.506 687.506 0 0 1 6.68-8.8 18.115 18.115 0 0 0 1.409-20.03 84.53 84.53 0 0 1-8.01-19.319c-1.937-7.047-7.884-12.204-15.16-13.155a862.562 862.562 0 0 1-10.932-1.501v-16.134c3.587-.516 7.253-1.02 10.932-1.501 7.276-.951 13.223-6.119 15.16-13.155a84.76 84.76 0 0 1 8.01-19.331c3.609-6.348 3.06-14.209-1.421-20.03a711.517 711.517 0 0 1-6.669-8.8l11.401-11.401a780.431 780.431 0 0 1 8.8 6.669c5.821 4.469 13.682 5.03 20.041 1.421a84.53 84.53 0 0 1 19.319-8.01c7.047-1.937 12.204-7.895 13.155-15.16.481-3.678.985-7.345 1.501-10.943h16.134a921.16 921.16 0 0 1 1.501 10.932c.951 7.276 6.108 13.235 13.155 15.171a84.76 84.76 0 0 1 19.331 8.01c6.348 3.61 14.209 3.048 20.03-1.421a780.431 780.431 0 0 1 8.8-6.669l11.401 11.401a711.517 711.517 0 0 1-6.669 8.8c-4.469 5.821-5.03 13.682-1.421 20.03a84.806 84.806 0 0 1 8.01 19.331c1.937 7.036 7.895 12.204 15.16 13.155 3.679.481 7.346.985 10.944 1.501zm-61.912 8.067c0-25.587-20.809-46.396-46.396-46.396s-46.396 20.809-46.396 46.396 20.809 46.396 46.396 46.396 46.396-20.809 46.396-46.396z"/><path style="fill:#1e0478" d="M381.919 83.683c25.587 0 46.396 20.809 46.396 46.396s-20.809 46.396-46.396 46.396-46.396-20.809-46.396-46.396 20.808-46.396 46.396-46.396zm25.771 46.397c0-14.209-11.562-25.771-25.771-25.771-14.209 0-25.771 11.562-25.771 25.771 0 14.209 11.562 25.771 25.771 25.771 14.209-.001 25.771-11.562 25.771-25.771zm-70.105 159.391c4.033 9.74.275 21.176-8.743 26.596a1075.77 1075.77 0 0 1-16.432 9.671 143.389 143.389 0 0 1 0 33.322c5.523 3.186 11.046 6.44 16.432 9.671 9.018 5.42 12.777 16.856 8.743 26.596l-11.768 28.418c-4.045 9.751-14.782 15.183-25.003 12.639a1167.462 1167.462 0 0 1-18.46-4.778 142.657 142.657 0 0 1-23.548 23.559 1129.06 1129.06 0 0 1 4.778 18.449c2.544 10.221-2.888 20.958-12.628 24.992l-28.418 11.78c-9.751 4.033-21.187.275-26.607-8.743a1028.743 1028.743 0 0 1-9.671-16.432 143.389 143.389 0 0 1-33.322 0 991.283 991.283 0 0 1-9.671 16.432c-3.953 6.577-11.104 10.359-18.46 10.359-2.739 0-5.5-.527-8.136-1.616l-28.429-11.78c-9.74-4.033-15.171-14.77-12.628-24.992a1084.969 1084.969 0 0 1 4.778-18.46 142.657 142.657 0 0 1-23.559-23.548 1065.51 1065.51 0 0 1-18.449 4.778c-10.221 2.544-20.958-2.888-24.992-12.628l-11.78-28.418c-4.033-9.751-.275-21.187 8.743-26.607a992.268 992.268 0 0 1 16.432-9.671 143.389 143.389 0 0 1 0-33.322 1006.108 1006.108 0 0 1-16.432-9.671c-9.018-5.42-12.777-16.856-8.743-26.596l11.768-28.418c4.045-9.751 14.782-15.183 24.992-12.639a1116.057 1116.057 0 0 1 18.472 4.778 142.657 142.657 0 0 1 23.548-23.559 1187.855 1187.855 0 0 1-4.778-18.449c-2.544-10.221 2.888-20.958 12.628-24.992l28.418-11.78c9.751-4.033 21.187-.275 26.607 8.743a970.846 970.846 0 0 1 9.671 16.432 143.389 143.389 0 0 1 33.322 0c3.186-5.535 6.44-11.058 9.671-16.432 5.42-9.018 16.856-12.777 26.607-8.743l28.418 11.78c9.74 4.033 15.171 14.77 12.628 24.992a1167.462 1167.462 0 0 1-4.778 18.46 142.657 142.657 0 0 1 23.559 23.548 1038.03 1038.03 0 0 1 18.449-4.778c10.221-2.544 20.958 2.888 24.992 12.628l11.78 28.418-.001.011zm-21.657 7.62-10.817-26.126a1044.79 1044.79 0 0 0-17.692 4.606c-8.376 2.246-17.211-.688-22.505-7.505a120.243 120.243 0 0 0-20.981-20.958 21.42 21.42 0 0 1-7.505-22.516c1.593-5.924 3.14-11.871 4.606-17.704l-26.126-10.817a968.082 968.082 0 0 0-9.259 15.767c-4.331 7.517-12.65 11.688-21.233 10.611a120.011 120.011 0 0 0-29.655 0c-8.548 1.066-16.89-3.105-21.21-10.622a1141.925 1141.925 0 0 0-9.259-15.756l-26.126 10.817a1045.037 1045.037 0 0 0 4.606 17.692c2.246 8.376-.688 17.211-7.494 22.505a119.967 119.967 0 0 0-20.97 20.981 21.422 21.422 0 0 1-22.516 7.505 967.92 967.92 0 0 0-17.704-4.606l-10.817 26.126a1022.033 1022.033 0 0 0 15.767 9.259c7.517 4.331 11.688 12.662 10.611 21.233a120.011 120.011 0 0 0 0 29.655c1.066 8.56-3.105 16.89-10.622 21.21a1067.403 1067.403 0 0 0-15.756 9.259l10.817 26.126a942.181 942.181 0 0 0 17.692-4.606c8.376-2.246 17.211.688 22.505 7.505a120.243 120.243 0 0 0 20.981 20.958c6.807 5.305 9.751 14.152 7.505 22.516a967.92 967.92 0 0 0-4.606 17.704l26.126 10.817a1113.888 1113.888 0 0 0 9.259-15.767c4.331-7.517 12.65-11.676 21.233-10.611a120.011 120.011 0 0 0 29.655 0c8.56-1.054 16.89 3.105 21.21 10.622a1094.858 1094.858 0 0 0 9.259 15.756l26.126-10.817a1072.392 1072.392 0 0 0-4.606-17.692c-2.246-8.376.688-17.211 7.494-22.505a120.346 120.346 0 0 0 20.97-20.981c5.305-6.807 14.14-9.751 22.516-7.505 5.924 1.593 11.871 3.14 17.704 4.606l10.817-26.126a1077.054 1077.054 0 0 0-15.767-9.259c-7.517-4.331-11.676-12.662-10.611-21.233a120.011 120.011 0 0 0 0-29.655c-1.066-8.56 3.105-16.89 10.622-21.21 5.305-3.06 10.611-6.177 15.756-9.259z"/><path style="fill:#6f7ccd" d="m305.111 270.965 10.817 26.126a1107.309 1107.309 0 0 1-15.756 9.259c-7.517 4.32-11.688 12.65-10.622 21.21a120.011 120.011 0 0 1 0 29.655c-1.066 8.571 3.094 16.902 10.611 21.233a1077.054 1077.054 0 0 1 15.767 9.259l-10.817 26.126a1137.544 1137.544 0 0 1-17.704-4.606c-8.376-2.246-17.211.699-22.516 7.505a120.311 120.311 0 0 1-20.97 20.981c-6.807 5.294-9.74 14.129-7.494 22.505a1074.998 1074.998 0 0 1 4.606 17.692l-26.126 10.817a1093.233 1093.233 0 0 1-9.259-15.756c-4.32-7.517-12.65-11.676-21.21-10.622a120.011 120.011 0 0 1-29.655 0c-8.583-1.066-16.902 3.094-21.233 10.611a1104.37 1104.37 0 0 1-9.259 15.767L98.166 477.91a967.92 967.92 0 0 1 4.606-17.704c2.246-8.365-.699-17.211-7.505-22.516a120.243 120.243 0 0 1-20.981-20.958c-5.294-6.818-14.129-9.751-22.505-7.505a942.181 942.181 0 0 1-17.692 4.606l-10.817-26.126c5.156-3.094 10.45-6.199 15.756-9.259 7.517-4.32 11.688-12.65 10.622-21.21a120.011 120.011 0 0 1 0-29.655c1.077-8.571-3.094-16.902-10.611-21.233a1022.033 1022.033 0 0 1-15.767-9.259l10.817-26.126a967.92 967.92 0 0 1 17.704 4.606 21.423 21.423 0 0 0 22.516-7.505 119.899 119.899 0 0 1 20.97-20.981c6.806-5.294 9.74-14.129 7.494-22.505a1026.403 1026.403 0 0 1-4.606-17.692l26.126-10.817a1152.114 1152.114 0 0 1 9.259 15.756c4.32 7.517 12.662 11.688 21.21 10.622a120.011 120.011 0 0 1 29.655 0c8.583 1.077 16.902-3.094 21.233-10.611a968.082 968.082 0 0 1 9.259-15.767l26.126 10.817a1140.472 1140.472 0 0 1-4.606 17.704 21.423 21.423 0 0 0 7.505 22.516 120.243 120.243 0 0 1 20.981 20.958c5.294 6.818 14.129 9.751 22.505 7.505 5.923-1.604 11.87-3.139 17.691-4.606zm-57.409 71.342c0-9.946-1.914-20.053-5.947-29.793-16.478-39.796-62.255-58.76-102.04-42.271-39.796 16.478-58.76 62.255-42.271 102.04 7.975 19.285 22.998 34.296 42.271 42.271 9.637 3.999 19.755 5.993 29.884 5.993s20.248-1.994 29.884-5.993c30.046-12.443 48.219-41.594 48.219-72.247z"/><path style="fill:#1e0478" d="M241.755 312.515c4.033 9.74 5.947 19.847 5.947 29.793 0 30.652-18.174 59.803-48.218 72.247-9.637 3.999-19.755 5.993-29.884 5.993s-20.248-1.994-29.884-5.993c-19.274-7.975-34.296-22.986-42.271-42.271-16.489-39.785 2.475-85.563 42.271-102.04 39.784-16.49 85.562 2.474 102.039 42.271zm-51.037 80.875c28.12-11.654 41.515-44.002 29.873-72.11-8.8-21.233-29.392-34.067-51.06-34.067a55.088 55.088 0 0 0-21.05 4.194c-28.12 11.654-41.515 44.002-29.873 72.11 5.649 13.624 16.249 24.224 29.873 29.873 13.625 5.638 28.624 5.638 42.237 0z"/></svg>