<svg height="512" width="512" xmlns="http://www.w3.org/2000/svg"><path d="M56.017 448v40H88l8-32v-8z" fill="#354f5c"/><path d="M160 448v40h31.983l8-32v-8z" fill="#047fa7"/><path d="M48 168h104v56H48z" fill="#798b9b"/><path d="M24 96h128v80H24z" fill="#354f5c"/><path d="M48 128h16v16H48z" fill="#ffc119"/><path d="M80 128h16v16H80z" fill="#ea732d"/><path d="M48 176h104v16H48z" fill="#57646f"/><path d="M48 288h104v56H48z" fill="#798b9b"/><path d="M24 216h128v80H24z" fill="#354f5c"/><path d="M48 248h16v16H48z" fill="#ffc119"/><path d="M80 248h16v16H80z" fill="#ea732d"/><path d="M48 296h104v16H48z" fill="#57646f"/><path d="M48 408h104v48H48z" fill="#798b9b"/><path d="M24 336h128v80H24z" fill="#354f5c"/><path d="M48 368h16v16H48z" fill="#ffc119"/><path d="M80 368h16v16H80z" fill="#ea732d"/><path d="M48 416h104v16H48z" fill="#57646f"/><path d="M455.983 448v40H424l-8-32v-8z" fill="#354f5c"/><path d="M351.983 448v40H320l-8-32v-8z" fill="#047fa7"/><path d="M464 224H360v-56h104z" fill="#798b9b"/><path d="M488 176H360V96h128z" fill="#354f5c"/><path d="M448 128h16v16h-16z" fill="#ffc119"/><path d="M416 128h16v16h-16z" fill="#ea732d"/><path d="M464 192H360v-16h104z" fill="#57646f"/><path d="M464 344H360v-56h104z" fill="#798b9b"/><path d="M488 296H360v-80h128z" fill="#354f5c"/><path d="M448 248h16v16h-16z" fill="#ffc119"/><path d="M416 248h16v16h-16z" fill="#ea732d"/><path d="M464 312H360v-16h104z" fill="#57646f"/><path d="M464 456H360v-48h104z" fill="#798b9b"/><path d="M488 416H360v-80h128z" fill="#354f5c"/><path d="M448 368h16v16h-16z" fill="#ffc119"/><path d="M416 368h16v16h-16z" fill="#ea732d"/><path d="M464 432H360v-16h104z" fill="#57646f"/><path d="M136 24h240v432H136z" fill="#0093ba"/><path d="M176 64h160v96H176zm144 120h16v16h-16z" fill="#ffc119"/><path d="M288 184h16v16h-16z" fill="#ea732d"/><path d="M256 184h16v16h-16z" fill="#ffc119"/><g fill="#7ecce6"><path d="M176 216h160v16H176zm80 175.978a47.978 47.978 0 1 1 33.941-14.037A47.85 47.85 0 0 1 256 391.978zm0-79.963a31.985 31.985 0 1 0 22.627 9.358A31.9 31.9 0 0 0 256 312.015z"/><path d="m182.405 406.225 135.744-135.744 11.312 11.312-135.744 135.744z"/><path d="m182.408 281.773 11.312-11.312 135.744 135.744-11.312 11.312z"/><path d="M256 423.962a79.984 79.984 0 1 1 56.569-136.53A79.962 79.962 0 0 1 256 423.962zm0-143.932a63.97 63.97 0 1 0 45.255 18.715A63.8 63.8 0 0 0 256 280.03z"/></g><path d="m264 64-24 96h96V64z" fill="#faac2b"/></svg>