<svg xmlns="http://www.w3.org/2000/svg" style="enable-background:new 0 0 512 512" xml:space="preserve" width="512" height="512"><path style="fill:#cd0000" d="m352.548 430.418-21.213-106.066-93.056 63.64-21.213 106.066c-1.139 5.696 1.09 11.669 6.07 15.206a14.976 14.976 0 0 0 16.355.59l106.066-63.64a15 15 0 0 0 6.991-15.796z"/><path style="fill:#fdbf00" d="M157.527 460.539c-26.304 26.304-92.27 46.024-140.848 51.329-4.455.636-9.122-1.06-12.304-4.243l153.152-153.152c29.274 29.274 29.274 76.792 0 106.066z"/><path style="fill:#f03800" d="M187.648 180.666 81.582 159.452a14.995 14.995 0 0 0-15.796 6.992L2.146 272.51a14.976 14.976 0 0 0 .59 16.355c3.535 4.978 9.507 7.209 15.206 6.07l106.066-21.213 63.64-93.056z"/><path style="fill:#edf5ff" d="M390.872 269.62 252.986 407.506H210.56L104.494 301.44v-42.426L242.38 121.128c22.698-22.698 42.214-39.669 59.821-52.185l70.428 70.428 70.428 70.853c-12.94 17.606-29.699 36.91-52.185 59.396z"/><path style="fill:#d7e9ff" d="M390.872 269.62 252.986 407.506H210.56l-53.033-53.033 215.102-215.102 70.428 70.853c-12.94 17.606-29.699 36.91-52.185 59.396z"/><path style="fill:#ffda2d" d="M157.527 354.473c-29.274-29.274-76.792-29.274-106.066 0C25.157 380.777 5.437 446.743.132 495.321c-.636 4.455 1.06 9.122 4.243 12.304s7.849 4.879 12.304 4.243c48.578-5.305 114.544-25.025 140.848-51.329 29.274-29.274 29.274-76.792 0-106.066z"/><path style="fill:#ff641a" d="m507.545 25.668-31.82 31.82c-5.939 5.939-15.273 5.94-21.213 0s-5.939-15.274 0-21.213l31.82-31.82c5.94-5.94 15.273-5.94 21.213 0s5.94 15.273 0 21.213z"/><path style="fill:#76e2f8" d="M327.233 184.767c-17.607-17.607-46.032-17.607-63.64 0-17.606 17.606-17.607 46.032 0 63.64s46.034 17.606 63.64 0c17.607-17.607 17.607-46.032 0-63.64z"/><path style="fill:#25d9f8" d="m263.593 248.407 63.64-63.64c17.607 17.607 17.607 46.032 0 63.64-17.607 17.606-46.033 17.607-63.64 0z"/><path style="fill:#f03800" d="m454.512 57.488 53.033-53.033c5.94 5.94 5.94 15.273 0 21.213l-31.82 31.82c-5.939 5.939-15.273 5.941-21.213 0z"/><path style="fill:#ff641a" d="M443.057 210.224c-35.426-4.88-68.52-20.577-94.611-46.669-25.879-25.879-41.366-59.609-46.245-94.611 9.759-7.213 18.88-12.515 28.214-17.183 39.245-19.728 75.944-19.94 134.705-19.728 4.029-.212 7.847 1.485 10.605 4.243s4.455 6.576 4.243 10.605c.212 58.761.211 95.248-19.728 134.705-4.668 9.333-10.182 18.667-17.183 28.638z"/><path style="fill:#f03800" d="M443.057 210.224c-35.426-4.88-68.52-20.577-94.611-46.669l127.279-127.28c2.758 2.758 4.455 6.576 4.243 10.605.212 58.761.211 95.248-19.728 134.705-4.668 9.334-10.182 18.668-17.183 28.639z"/><path style="fill:#47568c" d="m252.986 407.506-54.729 18.243c-5.517 1.697-11.456.425-15.487-3.606l-92.914-92.914c-4.031-4.031-5.303-9.97-3.606-15.487l18.243-54.729 148.493 148.493z"/><path style="fill:#2c3b73" d="m252.986 407.506-54.729 18.243c-5.517 1.697-11.456.425-15.487-3.606l-46.457-46.457 42.426-42.426 74.247 74.246z"/></svg>