<svg xmlns="http://www.w3.org/2000/svg" viewBox="0 0 512.03 512.03" style="enable-background:new 0 0 512.03 512.03" xml:space="preserve"><path transform="rotate(-134.999 58.986 453.027)" style="fill:#e7eced" d="M41.95 386.642h34.074v132.766H41.95z"/><path style="fill:#afb6bb" d="m111.126 430.364-29.44-29.44c-5.173-5.173-5.173-13.568 0-18.741l33.103-33.103 48.19 48.181-33.103 33.103c-5.182 5.173-13.568 5.173-18.75 0z"/><path transform="rotate(-134.999 266.614 450.273)" style="fill:#afb6bb" d="M249.577 414.029h34.074v72.483h-34.074z"/><path transform="rotate(-134.999 63.411 243.81)" style="fill:#afb6bb" d="M46.374 205.289h34.074v77.038H46.374z"/><path style="fill:#1f436d" d="M186.761 433.709 78.34 325.289l45.171-69.27 132.52 132.52z"/><path transform="rotate(-134.999 381.399 130.684)" style="fill:#ebba16" d="M253.619 90.739h255.556v79.889H253.619z"/><path style="fill:#366db6" d="M300.751 451.329 60.721 211.298c-6.903-6.903-6.903-18.097 0-25L203.065 43.945l265.039 265.039L325.76 451.329c-6.912 6.903-18.105 6.903-25.009 0z"/><path style="fill:#bc9013" d="M439.751 189.556c-2.26 0-4.52-.865-6.241-2.586L325.08 78.549a8.817 8.817 0 0 1 0-12.482c3.443-3.452 9.031-3.452 12.482 0l108.42 108.42a8.817 8.817 0 0 1 0 12.482 8.764 8.764 0 0 1-6.231 2.587z"/><path style="fill:#1f436d" d="M313.251 412.426c-2.26 0-4.52-.865-6.241-2.586l-204.8-204.8a8.817 8.817 0 0 1 0-12.482c3.443-3.452 9.031-3.452 12.482 0l204.8 204.8a8.817 8.817 0 0 1 0 12.482 8.803 8.803 0 0 1-6.241 2.586zm84.33-84.33c-2.26 0-4.52-.865-6.241-2.586l-204.8-204.8a8.817 8.817 0 0 1 0-12.482c3.443-3.452 9.031-3.452 12.482 0l204.8 204.8a8.817 8.817 0 0 1 0 12.482 8.803 8.803 0 0 1-6.241 2.586z"/><path transform="rotate(-134.999 174.712 180.722)" style="fill:#1f436d" d="M140.637 155.165h68.148v51.111h-68.148z"/><path transform="rotate(-134.999 331.286 337.355)" style="fill:#1f436d" d="M297.211 311.797h68.148v51.111h-68.148z"/><path transform="rotate(-134.999 253.01 259.03)" style="fill:#1f436d" d="M218.936 233.472h68.148v51.111h-68.148z"/><path transform="rotate(-134.999 343.373 168.679)" style="fill:#1f436d" d="M130.408 143.121h425.927v51.111H130.408z"/></svg>