<svg height="511pt" viewBox="1 -69 512 511" width="511pt" xmlns="http://www.w3.org/2000/svg"><path d="M512 151.758C511.988 68.218 418.219.5 302.547.5c-39.04 0-75.524 7.75-106.77 21.203-34.902 15.031-71.636 25.133-107.695 37.125C35.777 76.218.016 111.27 0 151.75v69.863c.016 40.48 35.777 75.532 88.086 92.926 36.055 11.988 72.789 22.09 107.691 37.121 31.246 13.453 67.735 21.203 106.77 21.203 115.672 0 209.441-67.718 209.453-151.258zm0 0" fill="#edb4a2"/><path d="M302.547.5c-35.238 0-68.395 6.313-97.496 17.438-34.813 13.308-69.297 27.652-105.274 37.37C41.168 71.142 0 108.337 0 151.774s41.168 80.63 99.777 96.465c35.977 9.719 70.461 24.063 105.274 37.367 29.101 11.125 62.258 17.442 97.496 17.442 115.676 0 209.453-67.73 209.453-151.274C512 68.227 418.223.5 302.547.5zm0 0" fill="#f3cdc1"/><path d="M487.238 167.969c2.395-12.754-6-25.035-18.754-27.43a23.472 23.472 0 0 0-4.246-.402h-68.601c-46.547 0-44.547 17.59-44.547 23.273a21.141 21.141 0 0 0 6.226 15.043c15.368 15.367 21.883 30.399 24.649 58.621 1.504 15.363 18.203 24.113 31.93 17.051 39.421-20.277 66.835-50.984 73.343-86.156zm0 0" fill="#ae2b00"/><path d="M499.129 148.625c-.375 0-.75.02-1.129.055-6.398.617-11.086 6.3-10.469 12.699.043.426.07.855.09 1.289v.055l.004.03v.063l.004.024v.094l.004.02v.1l.004.04v.211l.004.047v.206c0 .208 0 .41-.008.614v.055c0 .05-.004.101-.004.152v.055c-.004.05-.004.101-.008.152v.055c-.004.05-.008.101-.008.148l-.004.008v.05l-.004.044v.007c0 .032-.003.063-.003.098l-.004.012v.05l-.004.036v.011l-.008.098v.012l-.004.035v.05l-.004.012v.043l-.004.008v.047l-.004.016v.031l-.004.02v.027l-.003.02v.027l-.004.027-.004.04v.042l-.004.028-.004.019v.027l-.004.02a.822.822 0 0 1-.008.098v.015l-.004.031v.016l-.004.031v.016l-.011.11v.003l-.004.035-.004.012-.004.035v.008c-.004.055-.012.106-.016.156l-.004.008-.004.04v.003l-.02.16v.008l-.003.035v.008l-.023.16v.008l-.004.035-.004.008c-.008.055-.016.105-.02.16l-.004.008-.004.035v.008l-.023.16-.004.004-.004.035v.016l-.008.031v.008a.892.892 0 0 1-.02.113v.012l-.003.031-.004.016-.004.03-.004.013-.015.109-.004.012-.004.027-.004.02-.004.027-.004.02-.004.027-.004.023-.008.043-.007.047-.008.027-.004.02-.004.031-.004.016c-.004.016-.004.031-.008.047a1.944 1.944 0 0 0-.02.113l-.007.031-.023.117-.012.075-.008.039-.016.074-.004.039c-.007.027-.011.05-.02.082l-.003.027-.02.094v.02l-.046.226v.012l-.024.102-.004.02-.015.093-.008.023-.016.09-.004.024-.02.093-.003.02-.024.105v.008l-.07.348v.008l-.023.105-.004.012-.02.101-.004.016-.023.105v.008c-.043.192-.082.387-.125.578v.004c-3.645 16.711-12.027 32.367-24.16 46.309l-.082.094-.004.004c-.028.03-.051.062-.078.093l-.008.004c-.14.164-.277.32-.422.48l-.008.008c-.023.032-.047.055-.074.086l-.012.016-.07.078-.012.016-.07.078-.02.02c-.023.027-.05.058-.078.085v.004l-.172.192-.007.011a1.333 1.333 0 0 0-.07.078l-.028.028c-.02.023-.04.043-.055.062l-.082.094-.031.031-.059.063-.023.027-.055.063-.031.03-.063.075-.027.031-.07.075-.035.039-.047.05-.04.047-.038.043-.047.047-.04.047-.038.043-.043.043-.043.05-.035.04-.047.05-.024.024c-.066.074-.133.149-.203.223l-.008.011a.503.503 0 0 0-.062.067l-.02.02-.062.066-.02.02-.058.066-.024.023c-.02.024-.039.043-.058.067l-.016.015c-.125.137-.25.27-.379.406-.023.028-.05.055-.074.082l-.008.004-.07.078-.008.008a123.17 123.17 0 0 1-1.856 1.942c-.148.152-.293.308-.433.468-.156.145-.313.29-.461.442a163.128 163.128 0 0 1-34.031 25.89l-.008.004c-.18.106-.363.211-.547.317l-.11.062-.003.004c-.149.082-.293.168-.438.25l-.008.004-.101.059-.012.008a1.226 1.226 0 0 0-.098.054l-.011.008-.438.246-.004.004c-.148.086-.297.168-.445.25l-.668.375h-.004l-.105.059-.008.007-.102.055-.011.004c-.11.063-.22.121-.329.184l-.011.007c-.032.016-.067.036-.098.051l-.016.008c-.03.02-.066.04-.097.059l-.008.004-.332.18-.012.007c-.031.02-.066.035-.097.05l-.016.013-.094.05-.02.012c-.105.059-.218.117-.324.176l-.02.012-.089.046-.023.012-.086.047-.024.016-.093.05-.012.004a6.24 6.24 0 0 1-.223.121l-.008.004-.097.055-.024.012-.086.047-.023.011-.094.051-.016.008-.218.117-.024.012-.082.043-.031.02-.078.038-.031.02-.082.043-.024.012-.219.117-.015.008-.094.05-.11.055-.027.016-.082.043-.027.015-.098.051-.008.004-.109.059-.02.011-.09.047-.109.055-.03.02-.11.054-.094.05-.012.005-.113.058v.004l-.105.051-.032.02-.11.054-.077.043-.14.07c-.036.02-.071.04-.11.06l-.012.003-.094.05-.035.016-.074.04-.04.019-.07.04-.117.058-.027.015-.11.055a22.119 22.119 0 0 1-10.148 2.48c-11.21.083-20.644-8.378-21.781-19.53l-.012-.102-.004-.024c0-.027-.004-.054-.004-.078l-.003-.023-.008-.086-.004-.016a.958.958 0 0 1-.008-.105h-.004l-.008-.098v-.02l-.011-.082v-.023l-.012-.098v-.02a.587.587 0 0 1-.008-.077l-.004-.024-.008-.082-.004-.023a.822.822 0 0 1-.007-.098l-.004-.012-.008-.082v-.027l-.012-.082v-.02l-.012-.097v-.02l-.007-.078-.004-.027-.008-.078-.004-.02-.02-.203v-.016l-.011-.082v-.023l-.012-.094v-.004l-.012-.097v-.02l-.008-.074-.003-.035-.012-.082v-.008l-.012-.102v-.015c-.004-.028-.008-.055-.008-.082l-.004-.024-.007-.09-.004-.007a.822.822 0 0 1-.008-.098l-.004-.016c-.004-.027-.004-.054-.008-.082l-.004-.023c-.004-.031-.004-.063-.008-.094a.759.759 0 0 0-.015-.105l-.008-.098-.004-.016c-.004-.031-.008-.062-.008-.09l-.004-.007-.023-.203v-.012a.639.639 0 0 1-.008-.086l-.004-.016-.023-.199v-.016l-.012-.078v-.023l-.035-.297v-.008l-.035-.297-.004-.023-.012-.082v-.012l-.012-.094-.003-.023c0-.024-.004-.047-.004-.07l-.008-.032c0-.023-.004-.047-.004-.066l-.004-.027-.012-.094-.004-.008a.583.583 0 0 0-.007-.082l-.004-.031c-.004-.024-.004-.043-.008-.067l-.004-.027-.024-.188-.003-.02-.008-.073-.004-.028-.012-.086v-.003l-.012-.094-.003-.028a.479.479 0 0 0-.008-.074l-.004-.015-.012-.094a6.924 6.924 0 0 0-.012-.098v-.02l-.011-.074-.004-.023-.008-.074-.004-.02-.012-.09-.004-.027a.43.43 0 0 0-.007-.07l-.004-.024c-.004-.027-.008-.05-.008-.078l-.004-.015-.023-.188-.004-.023c-.004-.024-.004-.047-.008-.067l-.004-.027c-.004-.024-.008-.047-.008-.07l-.008-.047-.008-.067-.003-.027a.31.31 0 0 1-.008-.063l-.004-.03-.012-.075v-.016l-.016-.086-.003-.035-.008-.058-.004-.028-.008-.062-.004-.051a2.229 2.229 0 0 1-.012-.066l-.003-.032c0-.02-.004-.039-.008-.058l-.004-.035-.008-.063-.004-.027-.012-.086-.004-.031a.301.301 0 0 1-.007-.059l-.008-.031-.008-.059-.004-.035-.012-.086-.004-.012a.432.432 0 0 0-.007-.074l-.004-.031-.008-.059-.008-.035c0-.023-.004-.043-.008-.066l-.015-.102-.004-.039-.016-.094-.008-.058-.004-.031-.011-.075-.004-.035-.008-.058-.004-.032a2.229 2.229 0 0 0-.012-.066v-.024l-.015-.082-.004-.035-.008-.05-.004-.043-.008-.051-.004-.032-.015-.082-.004-.035c-.004-.02-.004-.035-.008-.054l-.004-.04-.008-.046-.007-.04-.012-.081-.004-.028c-.004-.02-.004-.039-.008-.054s-.004-.032-.008-.047l-.004-.035c-.004-.016-.004-.032-.007-.047l-.008-.051-.012-.067-.008-.05-.004-.035-.007-.047-.008-.043-.004-.047-.012-.07-.008-.043-.008-.051-.003-.035-.008-.043-.008-.047-.012-.067-.004-.05-.008-.043-.007-.036-.008-.05-.004-.043-.008-.047-.012-.07-.007-.047-.008-.036-.004-.043-.008-.046-.008-.04-.011-.081v-.024l-.008-.055-.008-.043-.008-.046-.004-.04-.012-.054-.011-.067-.004-.035-.016-.086-.011-.07a.912.912 0 0 0-.016-.102l-.004-.023-.008-.05-.004-.036-.008-.05-.007-.02-.016-.121-.004-.008-.02-.137-.003-.02-.02-.113-.004-.015-.008-.047-.003-.04-.008-.042-.008-.04-.008-.042-.012-.074-.007-.04-.008-.043-.008-.046-.004-.032-.008-.047-.008-.03c-.004-.028-.007-.06-.015-.09l-.004-.036-.008-.047-.008-.027-.008-.055v-.004l-.023-.128-.004-.012-.008-.055-.004-.031-.007-.047-.008-.027c-.004-.036-.012-.07-.016-.106l-.004-.015-.012-.055-.003-.024-.008-.054-.004-.024c-.008-.035-.012-.07-.02-.11l-.004-.015-.007-.054-.004-.024-.012-.055-.004-.02c-.008-.038-.012-.077-.02-.112l-.003-.012-.008-.055-.004-.023-.012-.055-.004-.02-.031-.187-.004-.012-.012-.062v-.008a3.452 3.452 0 0 0-.039-.195v-.012l-.011-.055-.004-.023-.047-.254-.004-.02-.047-.253-.004-.02-.012-.059-.003-.007-.036-.184-.004-.023-.011-.059v-.008a3.584 3.584 0 0 1-.04-.199c-.019-.09-.034-.18-.054-.27v-.003l-.012-.063-.004-.012c-.011-.066-.027-.132-.039-.195v-.004a2.23 2.23 0 0 1-.011-.066c-.02-.09-.04-.176-.055-.262l-.004-.012-.012-.062v-.008l-.027-.125v-.004l-.012-.059-.004-.011-.011-.059-.004-.015-.035-.18-.004-.016-.012-.054-.004-.016a5.76 5.76 0 0 0-.055-.254v-.012c-.02-.082-.035-.168-.054-.25l-.004-.015a4.846 4.846 0 0 0-.055-.254v-.008a6.06 6.06 0 0 1-.055-.258l-.004-.004c-.039-.176-.078-.351-.113-.523l-.004-.004-.011-.063-.004-.007c-.02-.086-.04-.168-.055-.254l-.004-.004-.059-.254v-.004l-.054-.25-.008-.016-.012-.054-.004-.016c-.011-.059-.027-.117-.039-.172l-.004-.016-.011-.054-.004-.012a4.068 4.068 0 0 0-.043-.184v-.003l-.016-.059-.004-.012c-.011-.062-.027-.12-.043-.183l-.015-.063v-.008l-.063-.246v-.011l-.058-.243-.004-.011c-.02-.078-.04-.157-.059-.239l-.004-.02-.015-.05v-.012l-.047-.18v-.003c-.02-.082-.043-.164-.063-.25l-.004-.004-.011-.059-.004-.008c-.016-.062-.032-.12-.047-.183l-.032-.125-.03-.117-.005-.012-.011-.05-.004-.016-.016-.055-.004-.012c-.035-.14-.074-.281-.11-.422l-.003-.008-.012-.054-.004-.012-.047-.176-.004-.004c-.003-.02-.007-.035-.011-.054l-.004-.016a10.292 10.292 0 0 1-.047-.172l-.004-.004-.012-.054-.007-.02-.016-.062-.027-.098-.004-.016-.012-.043-.008-.027-.012-.047-.007-.02c-.012-.05-.028-.101-.043-.152l-.008-.027-.012-.043-.004-.024-.043-.156-.008-.02-.011-.046-.008-.02a2.222 2.222 0 0 0-.043-.152l-.008-.024-.012-.046-.004-.02-.046-.156-.004-.02-.016-.047-.004-.023-.015-.043-.008-.027c-.004-.024-.012-.047-.02-.07l-.012-.036-.007-.035-.012-.035-.008-.035-.012-.035c-.007-.02-.011-.043-.02-.063l-.007-.035-.012-.04-.007-.03-.012-.04-.012-.027-.023-.082-.004-.02-.012-.038-.012-.032-.007-.039-.012-.031-.02-.063-.011-.039-.008-.035-.012-.031-.012-.035-.011-.04-.008-.034-.02-.063-.008-.023-.011-.043-.012-.032-.012-.039-.011-.035-.016-.05-.008-.036-.016-.05-.007-.024-.016-.043-.008-.031-.023-.082-.02-.05-.008-.032-.011-.043-.012-.031-.008-.036-.015-.046-.016-.051-.012-.028-.011-.043-.008-.027-.016-.05-.008-.016-.02-.07-.007-.02-.016-.05-.008-.028-.023-.07-.023-.067-.004-.016c-.004-.02-.012-.039-.016-.054l-.008-.024-.015-.05-.008-.02-.024-.07-.023-.07-.004-.02-.02-.051-.003-.023-.024-.067v-.004l-.023-.066-.008-.02-.016-.054-.004-.016a.72.72 0 0 0-.023-.066v-.004l-.023-.07-.008-.02-.02-.055-.004-.015-.047-.145-.004-.008-.02-.066-.003-.008-.023-.07v-.004l-.051-.145-.004-.011-.152-.446v-.004a71.013 71.013 0 0 0-6.016-13.12c-3.266-5.536-10.398-7.38-15.938-4.114-5.535 3.262-7.375 10.398-4.113 15.934a.063.063 0 0 1 .016.027c4.543 7.68 7.12 17.488 8.62 32.797 2.25 23.097 21.74 40.672 44.946 40.535a45.69 45.69 0 0 0 20.793-5.059 191.201 191.201 0 0 0 48.477-34.87c.176-.18.347-.36.508-.548.183-.168.363-.34.539-.52 19.152-19.644 31.62-42.702 36.058-66.675.801-4.305.992-8.7.574-13.059a11.638 11.638 0 0 0-11.566-10.523zm0 0" fill="#e48d72"/><path d="M302.54 68.371a251.59 251.59 0 0 0 50.42 32.918c38.142 18.707 92.43 15.574 92.43 15.574 17.567 0 26.024-20.824 14.087-33.707-29.094-31.402-77.493-53.543-133.657-58.386-46.547-.997-46.547 22.277-23.28 43.601zm0 0" fill="#ae2b00"/><path d="M330.418 90.68c-6.43-.004-11.645 5.203-11.648 11.629a11.63 11.63 0 0 0 5.71 10.023 265.221 265.221 0 0 0 18.235 9.856c32.191 15.789 72.418 18.148 93.531 18.148 5.02 0 8.496-.14 9.852-.203a44.245 44.245 0 0 0 5.28-.399c.9-.199 1.806-.351 2.72-.457a42.539 42.539 0 0 0 33.515-34.43c1.149-6.324-3.05-12.378-9.37-13.527-6.325-1.144-12.38 3.051-13.528 9.375-.008.055-.02.11-.031.164v.004l-.008.035v.008l-.008.035v.008l-.008.035-.004.008-.004.031-.004.012-.003.031-.004.012-.008.031v.012l-.012.047-.004.023-.004.02-.004.027-.004.016-.007.023-.004.02-.004.027-.004.016-.004.023-.004.02-.008.027-.004.016-.007.047-.008.02-.004.027-.004.015-.008.028v.015l-.008.031-.004.012-.007.031v.012l-.012.035v.008l-.008.035-.004.008a19.95 19.95 0 0 1-4.86 9.098v.004l-.03.03-.028.032h-.004l-.027.031-.063.063-.003.008-.063.062-.023.027-.008.004-.031.032-.024.027-.187.187-.012.008-.02.024-.03.031-.013.008-.062.062-.031.028-.028.027-.004.008c-.043.039-.086.082-.128.12l-.008.009-.028.023-.043.043-.02.016-.03.031-.02.016-.031.03-.016.013-.031.03-.02.016-.03.032-.016.011-.02.016-.031.031-.016.012-.02.02-.011.007-.031.032-.024.02-.012.01-.02.016-.03.032-.016.008-.031.03-.024.02-.007.008-.024.02-.012.007-.027.028-.031.023-.031.031-.008.004-.028.024-.007.008-.024.02-.004.003-.031.024-.004.003c-.2.168-.402.332-.61.493l-.07.054-.066.051h-.004l-.035.027a18.94 18.94 0 0 1-7.7 3.442c-.21.039-.417.09-.624.14-.211.02-.426.04-.637.07-.426.06-.855.102-1.29.134h-.003l-.047.004h-.004l-.043.003h-.004l-.046.004h-.004l-.2.012h-.007l-.04.004h-.046l-.012.004h-.05l-.036.004h-.05l-.013.004h-.05c-.032 0-.063.004-.098.004h-.012l-.035.003h-.097l-.02.004h-.094l-.035.004h-.125l-.035.004h-.2l-.019.004h-.144s-3.418.195-9.149.195c-17.09 0-54.715-1.757-83.281-15.77l-.148-.073-.09-.043-.035-.016-.235-.117-.027-.016-.098-.047-.023-.011-.246-.121-.149-.075a6.996 6.996 0 0 1-.242-.12l-.125-.063-.012-.004-.375-.188-.02-.007c-.081-.043-.163-.082-.241-.125l-.024-.008c-.031-.02-.066-.035-.101-.055l-.024-.012c-.082-.039-.164-.082-.246-.12l-.008-.005a1.602 1.602 0 0 0-.11-.058l-.027-.012-.105-.055-.016-.007c-.039-.02-.082-.04-.12-.063l-.012-.004-.114-.055-.02-.011c-.034-.02-.07-.035-.1-.055l-.024-.008a1.177 1.177 0 0 0-.121-.062l-.118-.059-.035-.02-.086-.046-.035-.016a1.29 1.29 0 0 1-.101-.055l-.047-.02c-.028-.015-.055-.026-.082-.042l-.043-.024-.07-.035-.051-.027-.075-.04-.093-.046-.164-.082-.063-.035-.05-.028-.118-.058-.047-.024-.066-.035-.04-.02-.073-.038-.036-.02-.164-.082-.003-.004-.086-.043-.02-.011-.086-.047-.012-.004-.277-.145-.016-.008-.09-.046-.007-.004a246.765 246.765 0 0 1-7.063-3.844l-.004-.004-.09-.047-.015-.012-.09-.05-.012-.008-.156-.086-.035-.024-.066-.035-.11-.062-.086-.051-.039-.023-.105-.06-.028-.015-.093-.054-.032-.016a241.459 241.459 0 0 1-3.144-1.832 11.509 11.509 0 0 0-5.883-1.613zm0 0" fill="#e48d72"/><path d="M69.82 93.59h-6.652c-34.523 0-65.145 27.832-63.043 62.297.043.691.098 1.386.16 2.086l-.11 58.668c-3.046 42.566 33.47 79.793 87.907 97.894 4.203 1.399 8.414 2.778 12.629 4.137 42.207 13.637 85.469-17.817 85.469-62.172.004-46.547.004-162.91-116.36-162.91zm0 0" fill="#ae2b00"/><path d="M327.816 163.41a43.746 43.746 0 0 1 5.192-20.195c5.945-11.11 2.02-24.93-8.875-31.254A290.599 290.599 0 0 1 279.273 79c-1.003-.883-3.18-2.957-6.07-5.754-25.2-24.367-62.14-32.133-95.02-19.976-29.894 8.425-28.863 36.89-15.269 50.16 37.348 35.636 44.727 92.375 46.184 129.797 0 23.273 17.007 35.175 23.625 37.043a258.33 258.33 0 0 0 69.824 9.503c3.289 0 6.555-.062 9.8-.18 28.981-1.07 50.383-28.402 43.907-56.671-2.879-12.559-7.61-20.23-15.39-28.012a44.28 44.28 0 0 1-13.048-31.5zm0 0" fill="#ae2b00"/><path d="M358.75 186.828c-6.43.008-11.633 5.227-11.625 11.652 0 2.227.64 4.407 1.848 6.282l.004.008.015.02c.024.042.051.085.078.124l.032.047.011.02.024.035.011.02.024.034.008.016.023.039h.004c.027.05.059.098.09.148l.004.004a.263.263 0 0 0 .027.043l.004.012.027.043.008.008.028.043v.004c.042.066.082.132.12.199l.005.004.027.047.004.004a50.196 50.196 0 0 1 4.18 8.656v.004c.05.14.105.281.156.426v.003l.023.059v.004l.11.3.003.012.02.055v.008l.02.055.003.004.082.242.004.008.02.054.004.012.02.055.003.011.082.239v.007l.02.051.004.016.015.05.008.016.016.051.008.016.074.23.008.02.015.043.031.093.012.043.008.024c.02.05.035.101.05.152l.009.027.015.043.008.028.012.039.047.14.007.028c.012.031.02.066.032.097l.004.012.015.043.008.028.012.039.008.03.015.04.008.031.023.078.012.031.012.04.023.074.008.023.012.043.008.031.015.04.008.03.012.044.012.031.011.039.012.035.016.059.015.043.008.035.012.043.011.031.012.04.008.034.016.043.007.028.016.05.008.024.02.074.003.008.02.066.004.02.015.055.008.023.016.05.008.028.015.047.004.027.02.063.004.012.02.074.007.02.023.081.012.047.008.028c.008.015.012.035.016.05l.007.024.016.058.004.02.023.074v.004l.02.07.008.024.015.054.008.024.012.055.008.023.015.055.008.02c.012.05.027.1.04.152l.003.02.02.062.003.02a.298.298 0 0 0 .016.054l.008.027.012.05.007.024.016.059.004.02c.016.05.027.101.043.152l.004.023.015.055.008.023.016.059.004.023c.004.02.012.04.015.059l.004.016c.008.027.016.05.02.078l.023.082v.004l.02.074.004.02.015.058.008.024.016.058.004.02c.004.023.011.043.015.066l.004.012c.016.054.028.11.043.164v.008c.008.023.012.047.02.07l.004.02.015.058.004.02.016.062.004.02c.015.054.027.109.043.16l.004.015.015.067.004.015.016.067.004.02.015.062.004.02.016.062.004.02c.011.054.027.105.039.16l.004.02.015.062.004.023.024.082.011.063.004.02c.008.023.012.046.02.07v.011l.02.082.007.02.012.058.008.028.011.054.008.032.012.05.008.032.011.05.008.032.016.078c.016.054.027.11.039.164l.008.035.012.05.003.02.012.063.008.02.012.062.004.015.015.067v.012a.418.418 0 0 1 .016.07v.004l.02.078v.016l.015.066.004.016.015.07v.012c.004.023.012.047.016.07l.004.016.012.066.004.016a.409.409 0 0 0 .015.066l.004.02.012.062.004.016.012.07.003.008c.004.027.008.05.016.074v.016l.016.066v.016c.007.02.011.043.015.066l.004.012.012.07.004.016.012.066.003.012.012.07.004.012.012.07v.016a.35.35 0 0 1 .015.07v.012c.008.023.012.047.016.07v.012l.016.07v.012l.015.07v.012l.012.07.004.012.012.07.004.012.011.074v.008l.016.074v.012l.012.07.004.012.011.07v.012l.012.07.004.012.012.07.004.012.007.07.004.012.012.074v.008l.012.074.004.008.011.074v.008l.012.074v.008l.012.074.004.008.011.078v.004l.012.078v.004l.012.078v.004l.012.078v.004c.007.028.007.055.011.079l.004.003.012.082c.004.028.004.055.008.083h.004l.007.078.004.004.008.082.012.082v.004l.012.078.011.082v.004c.004.027.008.05.008.078l.004.004a.48.48 0 0 1 .008.078v.004l.012.078.011.082v.004l.008.082a45.905 45.905 0 0 1-9.293 33.578 46.813 46.813 0 0 1-2.285 2.762.623.623 0 0 0-.05.058h-.005l-.047.055-.004.004-.05.054-.004.004c-.016.016-.028.032-.047.051l-.008.008-.043.05-.008.009-.043.046-.011.012-.043.047-.008.008-.043.05-.012.008-.043.047-.008.012-.043.047-.011.012-.043.046-.012.012a.428.428 0 0 0-.04.043l-.054.055-.011.015-.04.043-.015.016-.04.043-.054.055-.012.015-.039.043-.015.016c-.012.012-.024.027-.04.039l-.015.016a.385.385 0 0 1-.04.043l-.015.015-.035.04-.055.054-.02.023-.058.059-.027.031-.137.137-.027.031-.055.055-.023.027-.031.028-.028.027-.027.031-.25.25-.024.028-.03.027-.083.082-.031.027-.024.028-.054.054-.035.032-.114.113-.023.02-.145.144-.023.02-.055.054-.039.035-.015.02-.04.035-.02.02-.038.035-.016.02-.039.034-.02.016-.042.039-.012.016a.352.352 0 0 0-.04.035l-.073.074-.043.04-.016.015-.05.043-.005.007-.05.043-.008.012-.051.043-.008.012-.047.043-.011.008-.051.046-.004.008-.05.047-.009.008-.054.047-.004.004-.055.05-.004.004c-.035.036-.074.067-.113.102l-.004.004c-.04.035-.074.07-.113.105h-.004c-.035.036-.07.067-.11.102l-.007.004a46.007 46.007 0 0 1-2.414 2.027h-.004c-.04.031-.082.067-.121.098h-.004c-.04.031-.082.062-.121.094l-.004.004-.059.046h-.004l-.058.047-.004.004-.059.043-.008.004-.054.043-.012.008-.051.043-.008.004-.054.043-.008.004-.055.043-.008.003-.054.043-.012.008-.051.04-.012.007-.054.04-.008.007-.055.04-.008.007-.054.039-.012.008-.05.039-.013.008-.05.039-.012.007-.055.04-.008.007-.054.04-.012.011-.05.035-.012.008-.051.04-.016.007-.05.04-.012.007-.051.035-.016.012-.05.035-.012.012-.051.035-.012.008-.054.039-.008.007-.051.036-.02.011-.062.047-.05.035-.013.008-.05.035-.063.047-.02.012-.046.035-.016.008-.05.035-.016.012-.051.035-.012.008-.05.035-.016.012-.051.03-.016.016-.047.032-.02.011-.046.032-.02.015-.042.028-.024.015-.043.032-.02.011-.046.035-.02.008-.047.035-.02.012-.042.031-.024.012-.046.031-.016.016-.047.027-.02.016-.046.031-.02.012-.047.027-.02.016-.046.031-.02.012-.047.031-.02.016-.046.027-.02.016-.042.027-.028.016-.039.027-.023.016-.043.027-.024.016-.043.027-.027.016-.04.027-.023.016-.043.027-.027.016-.039.027-.023.015-.047.028-.02.015-.047.028-.023.012-.043.03-.023.012-.043.028-.024.015-.043.028-.023.015-.043.028-.028.015-.039.028-.027.015a.426.426 0 0 1-.043.024l-.023.015-.043.028-.024.015-.043.024-.027.02-.04.023-.027.015-.039.024-.03.02-.04.023-.027.015-.035.024-.036.02-.03.019-.036.023-.035.02-.031.02-.04.023-.03.016-.032.023-.105.059-.036.023-.03.016-.036.023-.031.02-.07.039-.032.02-.039.023-.031.015-.035.024-.04.02-.03.019-.032.015-.039.024-.023.015-.043.024-.028.015-.043.024-.023.016-.047.023-.02.016-.046.027-.02.008-.05.027-.02.012-.051.027-.02.016-.05.023-.008.008-.059.031-.007.004-.063.035-.008.004-.062.035-.004.004a45.408 45.408 0 0 1-3.11 1.57l-.003.005-.07.03a46.365 46.365 0 0 1-14.286 3.93l-.082.008h-.004c-.082.008-.164.02-.25.028l-.164.015h-.004l-.164.016h-.004l-.078.008h-.004l-.164.015h-.004l-.246.024h-.004l-.082.004h-.004l-.078.007h-.004l-.082.008h-.004l-.078.004h-.004a2.33 2.33 0 0 1-.164.016h-.004l-.082.004h-.004l-.078.008h-.008l-.078.003-.008.004-.074.004h-.008l-.078.004h-.008l-.074.008h-.015l-.07.004h-.008l-.075.004h-.011c-.028.004-.051.004-.075.004h-.004l-.082.007h-.003l-.079.004h-.011l-.075.004h-.011a2.063 2.063 0 0 1-.157.008h-.007c-.141.008-.278.016-.418.02l-.086.004c-3.242.117-6.512.18-9.801.18h-.785l-.04-.005h-.624l-.149-.004h-.46c-.122-.003-.247-.003-.364-.003h-.047l-.16-.004h-.246l-.152-.004h-.22l-.038-.004h-.192l-.18-.004h-.034l-.153-.004h-.043c-.062 0-.125 0-.187-.004h-.184l-.039-.004c-.125 0-.246-.004-.375-.004h-.031l-.172-.004h-.02c-.062-.004-.12-.004-.187-.004h-.027c-.059-.003-.114-.003-.168-.003h-.024c-.062-.004-.129-.004-.187-.004l-.028-.004h-.168l-.03-.004-.188-.004h-.012c-.059 0-.117 0-.176-.004h-.035a11.517 11.517 0 0 0-.371-.008l-.04-.004-.378-.007h-.02l-.39-.012h-.016l-.187-.008h-.008l-.2-.004h-.007c-.063-.004-.125-.004-.188-.008h-.015l-.391-.011h-.016l-.398-.012-.008-.004-.398-.012h-.008c-.133-.004-.266-.012-.402-.015l-.204-.008c-.27-.008-.539-.02-.808-.028l-.008-.004a262.023 262.023 0 0 1-34.469-3.664l-.027-.003c-.125-.02-.25-.043-.371-.063l-.024-.008-.171-.027-.016-.004c-.059-.012-.117-.02-.18-.031l-.035-.008-.148-.027-.04-.004a3.156 3.156 0 0 0-.171-.032l-.035-.007-.145-.024-.047-.012-.168-.027-.047-.012-.125-.02-.066-.01-.121-.024-.082-.016a6.82 6.82 0 0 1-.121-.023l-.082-.012-.086-.02-.133-.023-.094-.016-.094-.02-.062-.01c-.117-.02-.234-.044-.348-.063l-.043-.008-.375-.07-.015-.004a223.4 223.4 0 0 1-2.813-.547 12.35 12.35 0 0 0-.629-.11 11.157 11.157 0 0 0-.625-.144c-.969-.2-1.933-.406-2.898-.614l-.004-.003a1.515 1.515 0 0 1-.129-.028h-.004a14.24 14.24 0 0 0-.394-.086l-.02-.004-.11-.023-.05-.012-.082-.02-.051-.011-.086-.02-.05-.007-.083-.02-.133-.031-.085-.02-.047-.007-.102-.024-.031-.008c-.723-.16-1.445-.328-2.164-.496h-.008l-.535-.125-.004-.004a1.632 1.632 0 0 1-.133-.031l-.133-.031h-.004l-.265-.063-.004-.004c-.18-.039-.356-.082-.531-.125l-.008-.004-.262-.062h-.008c-.09-.023-.176-.043-.261-.066h-.008a191.3 191.3 0 0 1-2.95-.739h-.007l-.13-.035-.265-.066-.008-.004-.117-.031-.035-.008-.102-.028-.03-.007-.098-.024-.043-.012-.09-.023-.04-.012-.09-.023-.05-.012-.086-.023-.047-.012-.082-.023-.05-.012-.13-.035-.082-.024-.058-.012-.078-.023-.051-.012-.078-.023-.055-.012a1.974 1.974 0 0 1-.078-.023l-.055-.012-.074-.02-.062-.02-.075-.019-.054-.011-.07-.02-.063-.02-.074-.019-.059-.016-.07-.015-.063-.02-.07-.015-.063-.02-.062-.015-.07-.02-.067-.02-.062-.015-.067-.02-.066-.015-.07-.02-.059-.02-.066-.015-.07-.02-.067-.02-.063-.015-.066-.02-.066-.015-.067-.02-.062-.019-.067-.016-.066-.02-.07-.019-.063-.015-.066-.02-.063-.015-.133-.04-.062-.015-.07-.02-.063-.02-.066-.015-.059-.02-.074-.019-.059-.015-.07-.02-.059-.016-.074-.02-.07-.023-.059-.015-.066-.02-.067-.015-.086-.028-.171-.047-.028-.007-.004-.004-.023-.004h-.004l-.027-.008v-.004l-.024-.004-.008-.004-.023-.008-.027-.007h-.004l-.051-.016h-.004l-.055-.02h-.004l-.027-.007-.059-.02-.058-.015v-.004l-.027-.008h-.004l-.055-.02h-.004l-.059-.02c-.117-.038-.242-.085-.367-.128a24.859 24.859 0 0 1-4.703-2.438l-.004-.004a8.934 8.934 0 0 1-.289-.187l-.207-.137-.082-.058c-.113-.075-.223-.153-.336-.23a.995.995 0 0 1-.082-.056l-.008-.003a.558.558 0 0 0-.078-.055l-.004-.004-.082-.059-.004-.004-.035-.023-.008-.004-.039-.031-.039-.027-.004-.004-.039-.028h-.004l-.039-.027-.007-.008-.036-.023-.004-.004-.039-.028-.007-.007-.032-.02-.007-.008-.079-.058-.007-.004-.04-.028-.039-.03-.011-.009-.032-.023-.003-.004-.043-.027v-.004l-.04-.028-.007-.003-.04-.032-.038-.027-.008-.008-.035-.027-.004-.004-.04-.027-.011-.008-.027-.02-.012-.012-.035-.027-.012-.008-.027-.02-.047-.034-.004-.004-.04-.028-.015-.011-.023-.02-.012-.008-.039-.03-.008-.009-.031-.02-.012-.011-.031-.023-.016-.016-.027-.016-.012-.011-.031-.024-.008-.008-.035-.027-.016-.012-.023-.02-.016-.011-.035-.027-.012-.008-.023-.02-.02-.011-.027-.024-.02-.015-.023-.02-.02-.012-.027-.023-.007-.008-.04-.027-.011-.012-.028-.023-.011-.008-.035-.028-.016-.015-.024-.016-.015-.012-.047-.039-.027-.023-.016-.012-.02-.015-.023-.02-.027-.023-.059-.047-.027-.024-.02-.015-.023-.02-.016-.012-.027-.023-.02-.016-.027-.02-.04-.03-.015-.016-.023-.02-.031-.027-.016-.012-.02-.015-.023-.02-.027-.023-.02-.016-.02-.02-.015-.011-.04-.031-.015-.012-.02-.02-.019-.011-.039-.04-.031-.023-.02-.015-.023-.02-.004-.004-.047-.043-.016-.008-.035-.035-.078-.066-.012-.008-.023-.023-.008-.004-.05-.043-.008-.008-.028-.024v-.003l-.09-.075-.007-.008-.082-.074-.008-.008-.028-.023h-.003l-.051-.047-.012-.012-.027-.02-.008-.01-.082-.071-.012-.012a1.409 1.409 0 0 1-.078-.07l-.012-.008-.035-.035-.047-.04-.008-.007-.027-.023-.012-.012c-.011-.012-.027-.024-.043-.04l-.011-.007-.035-.035c-.028-.024-.055-.051-.082-.074l-.008-.008-.028-.024-.007-.007-.047-.043-.035-.036-.008-.004c-.028-.027-.055-.054-.082-.078l-.012-.007c-.027-.028-.059-.055-.086-.082l-.04-.04-.085-.078-.004-.004c-.027-.027-.058-.054-.09-.086-.07-.07-.144-.136-.215-.203l-.003-.007-.083-.079-.035-.035-.011-.008-.051-.054h-.004l-.027-.031-.004-.004-.09-.086-.004-.004-.211-.211h-.004c-.059-.063-.121-.125-.184-.188v.004a3.599 3.599 0 0 0-.12-.125l-.005-.004c-.07-.07-.14-.144-.21-.218l-.004-.004c-.172-.18-.344-.36-.516-.547l-.004-.004-.18-.192v-.003c-.101-.11-.199-.22-.3-.332l-.004-.004c-.043-.047-.078-.09-.121-.133v-.004l-.211-.238c-.032-.036-.059-.07-.09-.106s-.059-.07-.09-.101v-.004c-.07-.078-.14-.16-.21-.242v-.004c-.04-.047-.08-.094-.118-.141h-.004c-.027-.035-.059-.07-.086-.105l-.004-.004-.086-.102-.004-.008-.117-.14-.086-.11h-.004c-.027-.035-.058-.07-.086-.105v-.004l-.117-.145-.004-.004a24.018 24.018 0 0 1-.582-.746l-.289-.382a1.86 1.86 0 0 0-.086-.118l-.199-.27v-.007l-.113-.152v-.004c-.032-.04-.055-.078-.082-.114l-.004-.007-.082-.11-.004-.008c-.035-.05-.074-.101-.11-.156l-.003-.008-.079-.109-.003-.008c-.028-.039-.055-.074-.079-.113l-.007-.008c-.036-.05-.07-.105-.106-.156l-.008-.008c-.023-.039-.05-.078-.074-.113l-.008-.008-.074-.113-.031-.047-.008-.008-.047-.07-.004-.008-.023-.035-.004-.008-.074-.113-.032-.047-.007-.008-.043-.066-.008-.016-.031-.047c-.024-.035-.047-.074-.075-.11l-.007-.011-.07-.117-.009-.008-.02-.035-.01-.016c-.013-.02-.028-.039-.04-.062l-.031-.047-.008-.016a1.23 1.23 0 0 1-.047-.074l-.023-.035-.012-.016-.02-.035-.003-.004-.043-.07-.008-.016-.031-.047-.04-.066-.011-.012-.02-.035-.008-.016c-.023-.035-.046-.074-.07-.109l-.012-.02-.02-.03-.007-.016-.04-.067-.03-.047-.008-.015c-.012-.02-.027-.043-.04-.067l-.007-.011-.02-.032-.011-.023-.02-.031-.02-.036-.023-.039-.015-.023-.016-.031-.016-.024c-.007-.015-.02-.031-.027-.05l-.016-.024-.02-.031-.01-.02c-.013-.02-.02-.039-.032-.054l-.012-.024-.02-.031-.011-.024-.02-.027-.015-.031-.028-.047-.015-.023-.016-.032-.015-.023a.29.29 0 0 0-.028-.047l-.015-.031-.016-.024-.016-.031-.015-.027-.028-.047-.015-.031-.016-.024-.015-.031-.016-.027-.027-.047-.032-.055-.035-.07-.039-.063-.012-.027-.015-.028-.028-.05-.046-.082-.02-.035-.02-.04-.02-.03-.01-.028-.016-.031-.024-.036-.035-.07-.012-.027-.02-.031-.019-.04-.02-.035-.015-.027-.016-.031-.015-.028-.028-.05-.011-.028-.016-.031-.016-.023-.015-.032-.024-.05-.015-.028-.016-.031-.012-.027-.027-.047-.012-.028-.02-.035-.01-.023-.02-.035-.067-.133-.015-.028-.024-.054-.012-.02-.03-.062-.028-.051-.008-.023-.023-.04-.032-.062-.007-.02-.098-.195-.008-.02-.066-.132-.02-.047-.07-.14-.008-.02-.031-.063-.024-.058-.011-.02-.016-.039-.016-.027-.03-.063-.024-.05-.008-.024-.02-.043-.011-.02-.024-.058-.012-.02-.02-.043-.007-.02-.027-.058-.008-.015-.02-.047-.011-.024-.016-.043-.008-.015c-2.636-5.86-9.523-8.477-15.386-5.84-5.856 2.637-8.47 9.512-5.844 15.371 8.05 17.938 23.344 29.266 34.926 32.54a266.893 266.893 0 0 0 18.867 4.593c.23.047.457.09.687.12.223.06.45.114.68.157a285 285 0 0 0 55.914 5.508c3.578 0 7.129-.066 10.66-.195a69.94 69.94 0 0 0 53.047-27.473 69.111 69.111 0 0 0 12.688-57.648 78 78 0 0 0-10.391-25.555 11.636 11.636 0 0 0-9.797-5.344zm0 0" fill="#e48d72"/><path d="M473.941 162.238a11.741 11.741 0 0 0-11.222 8.328l-.278.918c-.043.145-.086.29-.12.434-.063.16-.118.32-.173.484-7.171 22.098-26.054 42.672-53.164 57.942-5.601 3.148-7.59 10.246-4.437 15.844 3.144 5.593 10.219 7.582 15.82 4.453 31.7-17.84 54.723-42.688 63.93-71.09.058-.176.11-.352.156-.528.059-.16.113-.324.168-.488l.047-.156.004-.008c.125-.41.25-.816.371-1.226v-.008c.016-.055.035-.114.05-.168 1.747-6.102-1.757-12.469-7.847-14.254a11.678 11.678 0 0 0-3.305-.477zm-10.558-73.144c-.008-.016-.012-.031-.02-.043l-.02-.043v-.004a.781.781 0 0 0-.038-.082v-.004c-.008-.012-.012-.027-.02-.043l-.02-.04v-.003c-.007-.012-.011-.027-.019-.043-.004-.016-.012-.027-.02-.043l-.078-.172a.345.345 0 0 0-.023-.043c-.234-.504-.496-1-.781-1.492l-.024-.043v-.004l-.023-.039-.024-.043c-.011-.015-.015-.027-.023-.039l-.004-.004a.343.343 0 0 0-.023-.039v-.004a.266.266 0 0 1-.024-.039l-.004-.004a.158.158 0 0 0-.02-.035l-.003-.008-.02-.035-.007-.008-.02-.035-.004-.004-.02-.035-.003-.008-.024-.035-.004-.004a.122.122 0 0 0-.02-.039l-.003-.004-.024-.035-.003-.008c-.008-.011-.012-.023-.02-.035l-.004-.008-.023-.035-.004-.004-.02-.035-.004-.008-.023-.035-.004-.008c-.008-.011-.016-.023-.023-.03l-.004-.009-.024-.035v-.008c-.012-.011-.015-.023-.023-.035l-.004-.004a.136.136 0 0 0-.024-.035l-.003-.008-.024-.035-.004-.008-.023-.035-.004-.004c-.008-.011-.012-.023-.02-.035l-.008-.008-.02-.035-.003-.004-.023-.035-.004-.008-.024-.035-.004-.004c-.007-.012-.015-.027-.023-.035l-.004-.008-.023-.035-.004-.004c-.008-.012-.016-.027-.028-.039v-.004c-.007-.012-.015-.027-.027-.039-.008-.012-.02-.027-.027-.039v-.004a22.409 22.409 0 0 0-.465-.652l-.028-.04-.003-.003-.028-.035-.004-.004-.027-.035-.004-.008-.023-.035-.004-.004-.028-.035-.004-.008c-.011-.012-.015-.024-.027-.031l-.004-.012-.027-.028-.004-.011-.023-.028-.008-.011-.024-.032-.008-.011-.023-.028-.008-.011-.023-.028-.008-.011c-.008-.012-.016-.02-.023-.032l-.008-.007a.174.174 0 0 0-.024-.028l-.008-.015-.023-.028-.008-.012-.023-.027-.008-.012-.023-.027-.008-.012-.024-.027-.008-.016a.168.168 0 0 1-.023-.027l-.012-.012-.02-.023-.011-.016-.02-.023-.011-.016-.024-.023-.007-.016-.024-.023-.012-.016a.07.07 0 0 0-.02-.023l-.01-.016c-.009-.008-.013-.016-.02-.023l-.012-.016-.024-.023-.007-.016-.024-.024-.012-.015-.02-.024-.01-.015-.024-.024-.012-.015c-.008-.008-.012-.016-.02-.024l-.011-.015-.02-.024-.015-.015-.02-.024-.012-.012-.02-.027-.015-.016-.02-.023-.034-.035-.012-.016c-.008-.008-.016-.015-.02-.023l-.011-.016-.024-.023-.012-.016-.023-.023-.012-.016-.02-.023-.011-.016-.035-.035-.024-.028-.011-.011-.02-.024-.015-.015-.02-.024-.016-.015a.104.104 0 0 0-.02-.024l-.01-.012c-.013-.011-.016-.02-.024-.027l-.012-.012a.196.196 0 0 1-.027-.03l-.008-.009-.027-.03-.008-.009c-.008-.008-.02-.015-.024-.027l-.011-.012a.352.352 0 0 1-.036-.039 1.179 1.179 0 0 0-.078-.082l-.027-.027-.047-.055-.078-.078a.6.6 0 0 0-.066-.074c-.008-.012-.02-.02-.028-.031l-.047-.051-.023-.024c-.336-.36-.676-.718-1.02-1.078l-.004-.004-.078-.082c-.015-.02-.035-.035-.05-.054l-.02-.02c-.023-.027-.047-.05-.074-.078-.211-.219-.418-.43-.63-.649a8.74 8.74 0 0 0-.308-.3c-.12-.137-.25-.274-.379-.407a150.692 150.692 0 0 0-15.207-13.414l-.004-.004-.441-.335v-.004c-.094-.075-.191-.145-.29-.22l-.01-.01a11.481 11.481 0 0 1-.286-.22l-.008-.004c-.047-.03-.086-.066-.129-.097a.104.104 0 0 1-.023-.02c-.094-.066-.184-.136-.277-.207l-.028-.02c-.043-.03-.082-.062-.125-.093l-.011-.008a4.081 4.081 0 0 0-.137-.105l-.028-.02a2.166 2.166 0 0 1-.113-.086l-.031-.023-.133-.098-.016-.012a2.235 2.235 0 0 0-.117-.086l-.043-.035-.097-.07-.035-.027c-5.165-3.825-12.454-2.735-16.278 2.43-3.812 5.156-2.738 12.425 2.406 16.257a131.464 131.464 0 0 1 12.223 10.258h-1.035c-13.75 0-48.39-1.305-73.035-13.39a221.778 221.778 0 0 1-15.024-8.122c-5.5-3.32-12.656-1.554-15.976 3.946-3.324 5.5-1.559 12.652 3.941 15.976.059.035.121.074.18.106 1.039.617 2.078 1.222 3.117 1.812.008.008.016.012.027.02.032.02.063.035.094.054.012.004.02.008.027.016l.106.059.039.023c.031.016.063.035.09.05.02.009.035.02.055.032l.05.027.067.04.039.023c.05.027.101.058.156.086l.012.008c.027.015.058.03.086.05l.02.008.09.051v.004a233.582 233.582 0 0 0 7.065 3.844l.008.004.09.046.016.008.277.145.012.008c.027.011.055.027.086.043l.02.011a.881.881 0 0 1 .085.043c.059.031.11.059.168.086a.158.158 0 0 0 .035.02c.024.011.047.027.075.039l.039.02.066.034.047.024c.039.02.078.043.117.058.016.012.035.02.05.028a.894.894 0 0 1 .063.035l.047.023.07.036.047.023.094.047c.024.016.051.027.074.043.016.004.032.015.051.023.024.012.043.024.07.035a.78.78 0 0 0 .125.063l.047.023c.032.02.07.036.106.055l.031.016.086.047.035.015c.035.02.07.035.102.051l.015.012.121.058.125.063.02.011c.04.02.078.04.113.06l.012.003c.04.023.082.043.121.063l.016.007a.84.84 0 0 1 .101.055l.032.012.113.058h.004c.082.043.164.086.246.125l.023.012c.035.02.07.035.102.05l.02.013c.081.039.163.082.245.125l.02.007.375.188.012.004c.039.02.074.039.117.058l.008.004c.082.043.16.082.242.121l.031.016c.031.016.067.035.102.05l.015.009c.082.039.164.082.243.12l.023.012.098.047.03.016c.079.039.157.078.235.113l.035.02.118.058c.039.02.082.04.117.059 28.566 14.012 66.195 15.77 83.285 15.77h1.301c4.64-.028 7.484-.176 7.812-.196h.184l.023-.004h.098c.012.004.023 0 .035 0h.152l.02-.004h.129c.008 0 .015 0 .023-.004h.125l.028-.004h.074c.008 0 .02 0 .027-.003h.075c.008 0 .016 0 .024-.004h.073l.027-.004h.024c.008 0 .02 0 .027-.004h.047c.008 0 .016 0 .023-.004.012.004.02 0 .028 0h.023l.028-.004h.046c.008 0 .02 0 .028-.004h.047l.023-.004h.052l.027-.004h.024l.023-.004h.024l.027-.004h.023l.024-.003h.023l.028-.004h.023l.023-.004h.024l.027-.004h.047c.008-.004.016-.004.024-.004h.023c.012-.004.02-.004.027-.004l.024-.004h.023l.024-.004h.027l.02-.004.03-.004h.02l.028-.003h.023c.008 0 .016-.004.027-.004h.02l.027-.004.02-.004h.027l.024-.004c.011 0 .02-.004.027-.004h.023l.028-.004.02-.004h.027l.015-.004.031-.004h.016l.035-.004h.008l.04-.003.01-.004c.126-.012.247-.032.368-.047h.004l.086-.012h.012a.114.114 0 0 1 .035-.008h.008c.011-.004.023-.004.03-.008h.02c.012-.003.024-.003.036-.007h.011l.035-.008h.012c.012-.004.024-.004.035-.004l.012-.004.035-.004.012-.004c.012 0 .023-.004.035-.004l.012-.004.031-.004.016-.003.03-.004.016-.004.032-.004.015-.004c.012 0 .024-.004.036-.004l.011-.004.035-.004.012-.004.031-.004.016-.004c.012 0 .02-.003.031-.007h.016c.012-.004.02-.004.031-.008h.016l.031-.008h.016l.046-.012.032-.004.047-.011h.011l.035-.008.016-.004c.008 0 .02-.004.031-.004l.012-.004.035-.008h.012l.031-.007h.016l.094-.024.03-.004.048-.011h.011l.036-.008.007-.004a.117.117 0 0 0 .036-.008h.011c.012-.004.024-.004.035-.008l.012-.004a.105.105 0 0 0 .035-.008l.008-.003c.012 0 .024-.004.035-.004l.012-.004.035-.008.008-.004.039-.008h.008l.039-.008.004-.004a.139.139 0 0 0 .039-.007h.004l.09-.024c.418-.097.832-.21 1.238-.336h.004l.043-.015c.043-.012.086-.028.129-.04.058-.019.117-.038.172-.058h.003c.059-.02.114-.035.168-.059h.004a.673.673 0 0 0 .082-.027h.004c.012-.004.028-.008.04-.016h.003l.04-.011v-.004a18.797 18.797 0 0 0 7.398-4.77l.027-.031.031-.031.028-.031.03-.032c.009-.011.02-.02.028-.031.012-.008.02-.02.028-.027l.004-.004.027-.031c.012-.008.02-.02.027-.028l.004-.004a.207.207 0 0 0 .027-.031l.028-.031a.4.4 0 0 0 .054-.063h.004l.028-.031h.004c.007-.012.015-.02.023-.031l.004-.004c.008-.008.016-.016.023-.027l.004-.004c.008-.008.016-.016.024-.028l.008-.004a.11.11 0 0 1 .023-.027v-.004c.012-.008.016-.02.027-.027l.004-.008.024-.023.004-.008.023-.024.008-.011.02-.024.007-.008.02-.023.008-.008.023-.023.004-.008.023-.028.004-.003.024-.028.004-.004.023-.03h.004l.023-.032a.196.196 0 0 0 .028-.031l.004-.008c.007-.008.015-.016.023-.028a.196.196 0 0 0 .027-.03l.004-.005.051-.062.004-.004c.035-.04.07-.082.102-.125l.007-.008c.067-.082.133-.168.2-.25l.007-.008.02-.027.008-.008.02-.023.007-.008a.07.07 0 0 1 .02-.028l.007-.007.012-.02.012-.016.015-.015.012-.02.012-.015.016-.016a.062.062 0 0 1 .011-.02l.012-.015.016-.02.023-.03.016-.016.007-.02c.008-.004.012-.012.016-.02l.012-.015.015-.016.012-.015.012-.02.012-.016.015-.02.012-.015.012-.02.011-.015.016-.016.023-.039.012-.011.016-.02.008-.015a.085.085 0 0 1 .015-.02l.012-.016.012-.02.011-.015.016-.02.008-.015.015-.02.008-.011.02-.024.008-.011.015-.024.008-.011.02-.024.003-.012.02-.023.031-.047.02-.023.054-.082.02-.024.031-.047.02-.027.004-.008.02-.027.003-.008.02-.027.004-.008.02-.028.003-.007.023-.032v-.004l.024-.035.023-.035a20.196 20.196 0 0 0 2.184-4.402l.012-.04a.27.27 0 0 0 .015-.038v-.004l.012-.035.004-.008.012-.035v-.004l.011-.035.004-.008.012-.031v-.008l.012-.035.004-.008.011-.031v-.008l.012-.035.004-.008.012-.035v-.004l.011-.035.004-.008.008-.032.004-.011.012-.031.004-.008.007-.035.004-.008.012-.032.004-.011.008-.031.004-.008.007-.032.004-.011.012-.032v-.011l.012-.031.004-.012a.072.072 0 0 0 .008-.028l.003-.011.008-.032.004-.011.008-.031.004-.012.012-.028.004-.011.007-.032v-.011l.012-.031.004-.012.008-.031.004-.008.007-.032.004-.011.008-.031.004-.012.008-.031.004-.008.008-.032.004-.011.007-.031.004-.012.008-.031.004-.012.008-.028.004-.015.008-.028.003-.015.008-.027.008-.024.004-.02.023-.081v-.008l.024-.078v-.008l.008-.035.004-.016.007-.027.004-.016.008-.027.004-.016.004-.027.004-.012c.004-.012.008-.02.008-.031l.004-.012.007-.031.004-.012c0-.012.004-.02.004-.031l.004-.012.008-.027.004-.016.008-.027.003-.016.004-.027.012-.047.004-.012.008-.027v-.012l.02-.078v-.008c.003-.011.003-.023.007-.031l.004-.012c0-.011.004-.023.008-.031v-.012c.004-.011.004-.023.008-.031l.004-.016.007-.027v-.012l.008-.03v-.017l.008-.027.004-.016.004-.027.004-.015.008-.028.003-.015c0-.008.004-.02.004-.028l.004-.015.004-.028.004-.015c.004-.008.004-.02.008-.028v-.015l.008-.028.004-.011.004-.036.003-.011.008-.032v-.007l.008-.035v-.008l.008-.035v-.008l.008-.035.004-.012.004-.035v-.004l.007-.035.004-.012.004-.035.004-.008.004-.035.004-.008c0-.012.004-.023.008-.035v-.008c0-.012.004-.023.004-.04l.003-.003.008-.039v-.004l.004-.043v-.004c.008-.027.012-.055.016-.082v-.004c.074-.437.133-.875.176-1.32.023-.234.043-.473.058-.707v-.004a19.897 19.897 0 0 0-1.61-9.281zm-139.707 35.492a12.038 12.038 0 0 0-11.227 7.695l-.023.059-.024.055-.043.082a66.611 66.611 0 0 0-7.812 30.933 67.358 67.358 0 0 0 19.855 47.95c4.684 4.687 7.25 8.39 9.168 16.761a22.522 22.522 0 0 1-4.25 18.926 23.523 23.523 0 0 1-17.832 9.289c-2.96.11-5.941.164-8.941.164a233.677 233.677 0 0 1-62.594-8.371c-1.394-.86-7.586-5.262-7.601-15.809l-.192-4.355c-.265-6.188-5.36-11.067-11.55-11.067-.196 0-.391.004-.587.016-6.425.324-11.386 5.77-11.109 12.2.07 1.394.129 2.765.184 4.113v.472l.004.004v.219l.003.043v.148l.004.051v.016l.004.129v.129l.004.023v.062l.004.043v.137l.004.012v.07l.004.055v.066l.004.02v.066l.004.04v.09l.004.046v.016l.004.054v.008c0 .02 0 .04.003.063v.027l.004.035v.063l.004.027v.062l.004.036v.027l.004.039v.023l.004.04v.074l.004.031.004.039v.031l.004.032v.03l.004.032v.063l.003.027v.035l.004.027v.036l.004.027.004.05v.008l.004.063v.016l.004.046v.028l.008.062v.032l.004.027v.039l.004.023.004.036v.027l.003.035v.027l.012.121v.02l.004.04v.026l.004.036v.027l.004.035.004.024.004.035v.027l.004.035.004.028v.039l.003.02.004.058.008.062v.031l.004.028.004.031v.027l.004.036.004.027.004.031v.028l.004.035.003.023.004.035v.02a.48.48 0 0 1 .008.078l.004.02v.03l.004.028.012.094v.023l.004.035.004.028.003.031v.027l.008.063.012.12.004.024.012.094.004.024.003.035v.023l.004.035.004.028.004.03.004.028.008.063c0 .023.004.047.008.066v.016l.004.035.003.027.004.031.004.028.004.031.004.027.004.032.004.027.004.031.004.028.008.062.003.027.004.055.004.028.004.03.004.036.004.023.004.036.004.023.008.035v.02l.007.039v.02l.008.038v.016l.008.039v.016a.721.721 0 0 0 .016.09v.007l.004.04.003.015.004.039.012.059v.015l.012.059.004.039.004.016.004.042.003.008.024.149v.008l.004.042.004.016.008.04v.015l.007.035.004.023.004.04.004.015.008.04v.015l.035.195v.008l.008.047v.008l.008.043.004.015.007.043v.012l.008.043.004.012.008.046v.004l.035.207.012.047v.012l.008.047v.004l.011.047v.007l.059.313v.004l.012.05.007.051v.004l.012.047v.008l.008.047.004.004.058.312h.004l.008.051v.004l.012.047v.004c.023.105.043.207.066.308v.004l.024.102v.004c.027.117.05.238.078.36l.012.046v.004c.062.273.128.547.195.812v.004a40.026 40.026 0 0 0 9.586 17.649l.023.027.004.004.024.027h.004l.023.028.008.007.129.137.023.028.008.003.023.028.028.027v.004c.054.055.11.11.16.164V262l.027.023.004.004.02.024.011.008c.051.054.102.105.153.16l.008.008.015.02.012.007.02.02.007.011.02.02.008.004.023.023.004.008.07.07.035.035.016.02.016.012.043.043.015.02.012.007.031.031.059.059.008.008.023.02.008.01.117.118.023.02.008.007.028.032.007.003.122.122.02.015.07.07.058.055.059.059.011.008.055.054.152.145.004.004.028.023.007.008.055.05.004.005c.039.039.082.074.121.113l.004.004.027.023.035.035.18.164.031.032h.004l.028.023.004.004a31.035 31.035 0 0 0 9.472 6.11l.043.015h.004l.035.012.008.004.035.011.008.004.027.008.016.008.016.004.023.008.02.007.023.008.016.004.058.024.016.004.023.007.016.004.027.012.008.004.031.008.012.004.027.007.008.004.031.012h.008l.032.012h.003l.036.011h.007l.032.012.035.012h.004l.031.008.008.004.031.007.008.004.031.008.004.004.031.008h.004l.035.012h.004l.031.007a258.309 258.309 0 0 0 69.825 9.504c3.289 0 6.554-.062 9.8-.18l.082-.003c.141-.008.282-.012.418-.02h.008c.051-.004.106-.004.16-.008h.008l.074-.004h.012l.078-.003h.008l.078-.008h.004c.024 0 .05 0 .074-.004h.012l.074-.004h.012l.07-.004h.012l.078-.008h.008l.074-.004h.008l.078-.004.008-.003.074-.004h.008l.082-.008h.004l.078-.004h.004c.059-.004.113-.012.168-.016l.082-.004h.004l.078-.007h.004l.082-.008h.004l.078-.004h.004l.082-.008.086-.008.082-.008.168-.015.082-.008h.004l.078-.008h.004l.164-.015h.004l.082-.008c.082-.008.164-.02.25-.028l.082-.007a46.365 46.365 0 0 0 14.285-3.93h.004l.07-.031v-.004a46.305 46.305 0 0 0 3.11-1.57l.007-.004.063-.036.004-.004.062-.035.008-.004.059-.03.011-.009.047-.023.024-.016.047-.027.02-.012.05-.027.02-.012.046-.023.024-.016.043-.023.027-.016.043-.023.023-.016.043-.023.028-.016.039-.024.031-.015.031-.02.036-.023.035-.02.03-.015.04-.024.031-.02.07-.038.032-.02.035-.023.035-.016.035-.023.032-.02.07-.039.035-.023.027-.016.04-.023.03-.02.04-.023.031-.02.035-.02.031-.019.036-.023.03-.016.04-.024.027-.02.04-.022.027-.016.039-.024.027-.02.043-.023.023-.015.043-.027.024-.016.043-.027.027-.012.04-.028.03-.015.04-.027.023-.016.043-.027.023-.016.043-.027.024-.012.047-.031.023-.012.043-.027.023-.016.043-.027.024-.016.043-.027.027-.016.04-.027.027-.016.039-.027.023-.016.043-.027.023-.016.043-.027.024-.016.043-.027.027-.016.04-.027.023-.016.043-.027.023-.016.043-.031.024-.012.043-.031.023-.016.043-.027.02-.012.046-.031.02-.016.047-.03.02-.013.046-.03.02-.013.047-.03.015-.013.05-.035.017-.011.046-.032.02-.011.043-.032.023-.015.043-.028.02-.015.047-.031.02-.012.046-.035.02-.012.047-.031.02-.012.046-.035.016-.008.05-.035.012-.012.05-.035.017-.008.046-.035.02-.016.047-.03.015-.013.051-.035.063-.047.015-.007.051-.036.016-.011.05-.035.012-.008.051-.04.012-.007.054-.04.012-.007.05-.035.013-.012.05-.035.012-.008a.474.474 0 0 1 .055-.039l.012-.008.05-.039.012-.008.05-.039.013-.007.054-.04.008-.007.055-.04.011-.007.055-.04.008-.007.05-.04.012-.007.055-.039.008-.008.055-.039.011-.008.055-.039.008-.008.055-.039.007-.007.059-.043.004-.004.055-.043.007-.004.055-.043.008-.008.05-.04.016-.007.055-.043.004-.004.058-.043.004-.004.059-.047.004-.003.058-.043.004-.004a3.27 3.27 0 0 0 .121-.094l.004-.004c.04-.031.082-.062.121-.094l.004-.004a47.924 47.924 0 0 0 2.414-2.023l.008-.008c.04-.031.074-.066.114-.098v-.003c.039-.036.078-.067.113-.102l.004-.004.113-.101.008-.008.05-.047.004-.004.055-.047.008-.012.05-.043.005-.007.05-.047.012-.008.047-.047.012-.008.047-.043.011-.011.047-.043.055-.055.016-.012.043-.039.074-.074.039-.035.054-.055.02-.016.04-.039.019-.015.054-.055.04-.035.015-.02.039-.035.02-.02.039-.035.02-.023.034-.031.078-.078.036-.032.078-.078.035-.03.246-.247.031-.027.055-.055.027-.031.192-.192.027-.031.027-.027.032-.028.023-.023.031-.035.11-.11.023-.027.086-.086.023-.027.032-.032.02-.023.054-.055.035-.039.055-.054.015-.02.055-.055.04-.043.015-.015.039-.043.012-.012.039-.043.015-.015.04-.043.054-.055.012-.016.039-.043.012-.011.042-.047.012-.012.043-.047.012-.008.043-.05.008-.008.043-.047.007-.012.047-.047.008-.012.043-.046.008-.008.047-.051.008-.008c.015-.015.027-.031.046-.05l.004-.004.047-.055.004-.004.05-.055.052-.058a46.103 46.103 0 0 0 11.582-36.34l-.024-.164-.007-.082v-.004l-.012-.078v-.004l-.012-.078v-.004l-.012-.078v-.004l-.007-.078-.004-.004-.008-.082-.012-.078v-.004l-.012-.082-.011-.082-.012-.082v-.004l-.012-.079v-.003l-.011-.079-.004-.003-.008-.079-.004-.003-.012-.079v-.004l-.012-.078v-.007l-.011-.075v-.007c-.004-.024-.012-.047-.016-.075v-.008l-.012-.074v-.008l-.011-.074-.004-.008-.012-.074v-.012l-.012-.07-.004-.012-.011-.07v-.012l-.012-.07-.004-.012-.012-.07v-.012l-.015-.07v-.012l-.012-.07-.004-.012-.012-.07-.004-.012-.011-.074v-.012l-.012-.066-.004-.016-.012-.07-.003-.012-.012-.07-.004-.012-.012-.07-.004-.012-.011-.07-.004-.012-.012-.07-.004-.012-.012-.07-.004-.016-.011-.066-.004-.016-.012-.07-.004-.012-.012-.066-.003-.016-.012-.066-.004-.016a.454.454 0 0 0-.016-.07v-.012l-.015-.07-.004-.012-.012-.066-.004-.02-.012-.066-.004-.016c-.003-.02-.011-.043-.015-.066l-.004-.016-.012-.07-.004-.012-.015-.07v-.012c-.008-.023-.012-.047-.016-.07l-.004-.016c-.004-.027-.012-.05-.015-.078a.635.635 0 0 1-.016-.074l-.004-.012-.016-.066-.004-.016a1.867 1.867 0 0 1-.011-.063l-.004-.02c-.008-.019-.012-.042-.016-.062l-.004-.02-.011-.046-.008-.04c-.012-.054-.024-.105-.035-.163-2.88-12.559-7.614-20.23-15.391-28.012a44.28 44.28 0 0 1-13.047-31.5 43.678 43.678 0 0 1 5.192-20.2c.117-.222.226-.452.328-.683.058-.109.117-.218.172-.328.203-.437.39-.879.566-1.32l.004-.016.02-.047c.109-.28.214-.566.316-.851v-.004c.137-.39.262-.781.379-1.176a11.255 11.255 0 0 0-7.223-13.539 11.907 11.907 0 0 0-3.906-.66zM39.902 204.871c-19.289.024-34.902 15.68-34.875 34.965a34.915 34.915 0 0 0 4.344 16.824 92.956 92.956 0 0 0 11.55 16.27l.005.004c.058.062.113.125.168.187v.004c.086.098.172.191.254.285l.004.004.168.188.003.003c.055.063.11.125.168.188l.004.008c.055.062.114.125.168.183l.004.004c.086.098.168.188.254.285l.004.004.172.184.004.008c.144.156.289.312.433.472l.172.188.008.004c.055.062.113.12.172.183l.008.008c.054.063.113.121.172.184l.004.004.082.09.003.003.172.184.008.008c.055.058.113.117.168.18l.016.011.168.18.008.008c.058.058.113.117.171.18l.012.007.078.086.008.004.086.094.098.098.172.18.007.007.082.086.004.004.09.09.004.008.094.093.086.09.086.086.011.012c.055.058.114.117.172.176l.016.011.172.176.008.012.18.176.003.007.082.082.012.012c.059.055.117.117.176.172l.011.012.176.18.008.007.18.176.09.09.011.008.09.09.09.09.004.003.18.176.015.016c.059.054.117.113.176.172l.012.011a.99.99 0 0 0 .082.078l.008.008.09.086.1.102a.934.934 0 0 1 .09.086l.09.082.016.015.176.172.016.012.086.082v.004l.093.086.012.011.078.075.012.011c.031.032.062.059.094.086l.004.004c.027.028.054.055.085.082l.012.012c.059.059.117.113.18.172l.016.015.18.168.01.008c.028.032.06.059.09.086v.004c.032.027.063.059.098.086l.004.004.09.086.004.004c.066.058.125.117.188.176l.011.007.184.172.016.012c.058.059.12.117.183.172l.012.008.086.082.008.008c.062.054.128.117.187.171l.012.008c.058.055.125.117.187.172l.012.008c.063.058.125.117.188.172l.007.008.094.086.098.085.008.008.09.082.007.004.188.172.015.012c.063.054.125.113.188.168l.012.011c.062.06.128.114.195.172.035.032.066.059.098.09h.003c.063.059.13.117.196.176l.008.004.195.172.008.008.195.171.008.008c.066.055.133.114.195.172l.008.004.094.082.004.004c.066.055.132.113.199.172l.008.008c.066.054.132.113.199.172l.004.003c.105.086.203.172.304.258l.004.004c.067.059.133.113.2.172l.003.004.204.172.007.004c.067.058.137.117.204.172v.004c.105.085.207.171.312.257v.004l.207.172.004.004.203.168.008.008c.168.14.344.285.516.426l.007.007.203.164.012.012.203.164.004.004c.07.059.14.113.211.172l.106.086.214.172c.07.058.141.113.211.168l.004.004.317.254.004.004c.07.054.14.113.21.167l.004.004.211.164.008.008.211.164.004.008.211.164.008.004c.031.027.066.055.097.078l.008.008.207.16.012.012.207.16.016.008.21.164c.184.14.364.281.547.422h.004a168.392 168.392 0 0 0 45.27 24.066v.004c.25.086.5.176.746.266l.012.004c.097.035.191.066.289.101l.015.004.293.106c.102.035.204.07.301.105l.008.004c.047.016.094.031.144.05h.004c.098.036.196.067.293.102l.016.008.285.098.024.008.132.046h.008l.14.051.024.008.125.043.02.008.144.047.004.004c.047.015.09.027.137.043l.023.011.278.094.035.012c.043.015.086.027.133.043l.004.004c.046.015.09.027.136.047l.032.007c.039.016.086.028.125.043l.015.004.137.047.027.008.121.043.164.055.02.007.121.04.031.011.137.043c.152.05.3.102.45.152l.05.016c.133.043.27.086.402.133l.07.023.387.13.079.023.378.125.086.027.383.129.11.035c.12.04.242.078.363.121l.117.035c.113.04.227.078.34.114l.117.039.32.105.149.051c.105.031.207.066.308.102l.184.058c.094.031.188.059.277.09l.211.07.297.098c.055.016.11.035.164.05.09.032.18.063.27.09.066.024.129.044.195.063.086.031.172.059.262.086l.238.078.207.07.262.082c.066.024.133.047.199.067.094.031.184.058.273.09l.149.047.308.101.137.043c.149.05.301.098.45.149l.074.023c.12.04.242.078.363.117l.07.024c.13.043.258.082.387.125l.031.011c9.59 3.11 19.215 6.125 28.824 9.176l.57.176c.2.066.4.133.598.195.055.02.106.035.16.051.36.113.72.23 1.079.344 18.367 5.851 38.004-4.293 43.86-22.664 5.85-18.371-4.298-38.008-22.665-43.86-.008 0-.012-.004-.02-.004l-1.242-.398c-.207-.063-.41-.129-.617-.188a29.27 29.27 0 0 0-.625-.207l-7.996-2.53c-9.688-3.067-19.375-6.13-29.012-9.337-24.726-8.219-36.562-19.855-39.656-25.433a34.89 34.89 0 0 0-30.555-17.977zm0 0" fill="#8e1600"/><path d="M221.168 313.227c-12.856.007-23.273 10.43-23.27 23.285a23.283 23.283 0 0 0 15.77 22.027l.34.113.137.047.09.031.081.028.098.031.102.035c.039.012.078.024.117.04l.074.027c.04.011.07.023.11.035l.062.02c.05.019.101.034.156.054l.063.02c.039.011.074.023.109.035l.066.023c.051.016.106.035.157.05l.054.02.121.04.063.023.148.047.02.008.172.054.05.02c.044.012.09.027.133.043l.047.015c.055.016.11.036.168.055l.043.012.137.047.047.015c.054.02.113.036.172.055l.027.008c.05.02.098.035.148.05l.047.016.352.114.039.011.164.055.016.004c.058.02.12.039.18.058l.03.012c.055.016.11.035.165.05l.02.009.187.058.011.004c.059.02.114.035.172.055l.028.008c.12.039.246.078.37.117l.024.008.38.12h.003l.187.06.012.003.383.121.012.004c.129.04.254.078.383.121l.015.004.383.118.008.003a266.717 266.717 0 0 0 33.3 7.961c.641.11 1.278.22 1.919.325h.003l.422.07h.008l.422.07h.004c.21.035.422.067.637.102h.007l.418.07h.016c.137.024.277.043.414.067h.012l.207.035h.004c.136.02.277.043.418.062l.015.004c.141.02.278.043.418.063l.016.003c.137.02.273.04.41.063l.024.004.187.027.02.004c.07.008.14.02.207.031h.011l.22.032c.132.023.265.043.401.062l.036.004.402.059.219.03.011.005c.067.008.137.02.203.027l.028.004c.058.008.125.02.183.027l.02.004.21.028.005.004.199.027.027.004c.133.02.27.039.407.054l.027.004c.066.012.129.02.191.028l.012.004c.07.007.137.02.207.027l.024.004.175.023.036.004.199.028.02.003.183.024.035.008c.133.015.266.035.398.05l.04.008.19.024.009.004.203.023.035.008c.059.008.113.016.172.02l.031.003c.067.012.133.02.195.028l.04.004.167.023.04.004.199.027h.008l.191.028.043.004.184.023.015.004.195.023.043.004.168.024.036.004.195.023.035.004.168.023.047.004.191.024.024.004.175.023.051.004c.063.008.125.016.192.023l.199.024.05.008a2.2 2.2 0 0 0 .169.02l.027.003.195.023.047.004c.055.008.102.016.156.02l.047.008.196.023.027.004.172.02.047.004.398.046.04.008.183.02h.02l.199.023.039.004c.054.008.113.016.168.02l.039.004.199.023.027.004.172.02.047.003.2.024h.007l.188.02.05.007c.059.008.121.012.18.02l.016.004c.066.003.132.011.195.02l.055.003.16.02.234.023.035.004c.055.008.114.012.168.02l.043.003c.067.008.137.016.2.02l.023.004.176.02.047.003.19.02.009.004c.066.003.133.011.199.02l.047.003.164.016.039.004.195.023.043.004.164.016.043.003.2.02.023.004.172.015.055.008.394.035.05.008.177.016.02.004c.066.004.136.012.202.02l.04.003c.058.004.113.012.171.016l.035.004c.067.008.137.011.203.02h.024c.062.007.121.011.184.019l.035.004c.14.011.273.023.41.039h.035l.2.02h.003l.211.019.027.004.188.015.023.004.211.02h.012c.066.004.129.012.195.015l.028.004.414.036.035.003.418.036.02.003.429.036h.004l.21.02h.013c.144.01.289.023.433.034h.012l.434.035h.011l.438.036.218.02h.008c.14.01.285.023.43.03l.02.004c.144.012.285.02.43.032h.015c.144.011.289.023.437.03 2.532.188 5.075.34 7.63.458.206.012.41.015.616.02.207.015.414.027.622.035l.039.003.125.004.09.004c.038.004.074.004.113.004l.101.004.106.004c.047.004.093.004.14.008h.063c.07.004.137.008.207.008l.066.004.149.007h.07l.145.008h.066l.16.008h.05l.188.008h.028c.148.008.297.011.445.015h.008l.207.008.027.004.196.004h.027c.07.004.14.008.21.008h.005c.3.012.601.02.898.027h.016l.207.008h.015l.899.023h.008l.215.004.011.004.219.004h.004c.3.008.598.012.898.02h.02c.07 0 .137.004.207.004h.016l.214.003h.008l.676.012h.012l.207.004H298c.063 0 .129.004.191.004h.032c.066 0 .136.004.199.004h.02c.148 0 .296.004.445.004l.027.004h.234c.059.004.118.004.172.004h.227l.047.004h.215c.148.003.293.003.437.003h.05l.165.004h.289c.05 0 .102 0 .152.004h.922l.078.004h1.325l.09-.004h.758l.128-.004h.336l.043-.004h.477l.03-.003h.337c.05-.004.101-.004.152-.004h.184l.156-.004h.184l.156-.004h.176c2.375-.031 4.742-.094 7.097-.18 12.844-.512 22.844-11.336 22.332-24.18-.496-12.476-10.75-22.34-23.238-22.347-.293 0-.586.004-.879.015-3.047.114-6.113.168-9.2.168-3.487 0-6.944-.07-10.382-.214-.18-.008-.36-.016-.535-.02-.18-.012-.36-.02-.54-.027a226.255 226.255 0 0 1-62.417-11.578 23.224 23.224 0 0 0-7.504-1.247zM467.094 257.8a23.236 23.236 0 0 0-18.418 9.023 111.13 111.13 0 0 1-10.98 12.14c-.114.106-.223.216-.333.325-.113.106-.23.211-.343.316-13.207 12.461-30.56 23.215-50.18 31.09-11.93 4.785-17.723 18.332-12.938 30.262 4.778 11.922 18.313 17.719 30.239 12.953 25.285-10.152 47.367-23.98 64.843-40.472.149-.141.293-.282.438-.422l.465-.434.008-.008c.043-.043.085-.082.125-.12l.015-.013c.04-.039.074-.074.113-.109l.016-.016.258-.246.008-.011.258-.25.007-.008a4.68 4.68 0 0 0 .125-.121l.008-.004.258-.254.004-.004a157.964 157.964 0 0 0 12.723-13.984l.007-.008c.07-.09.145-.18.215-.27l.012-.011c.035-.047.07-.09.105-.133l.11-.14.004-.005c.035-.043.066-.086.101-.129l.012-.011c.07-.09.137-.176.207-.262l.023-.031.094-.118.008-.007.098-.13.023-.027.082-.105.024-.027.093-.122.028-.035c.023-.031.05-.062.074-.093l.031-.04.078-.101.031-.043a1.71 1.71 0 0 0 .079-.098l.039-.047c.02-.027.039-.054.062-.082l.027-.039c7.868-10.168 6.004-24.785-4.164-32.648a23.238 23.238 0 0 0-14.222-4.871zm0 0" fill="#e48d72"/><path d="M93.09 140.137c0-12.856-15.63-23.274-34.906-23.274-19.282 0-34.91 10.418-34.91 23.274 0 12.851 15.628 23.273 34.91 23.273 19.277 0 34.906-10.422 34.906-23.273zm41.726 4.813c-5.207-5.212-12.48-6.384-16.242-2.622-3.765 3.762-2.594 11.035 2.61 16.242 5.207 5.211 12.48 6.387 16.246 2.625 3.761-3.761 2.593-11.035-2.614-16.246zM256 93.59c0-12.852-15.629-23.274-34.91-23.274-19.278 0-34.906 10.422-34.906 23.274 0 12.855 15.629 23.273 34.906 23.273 19.281 0 34.91-10.418 34.91-23.273zm46.547 34.91c0 6.426-5.211 11.637-11.637 11.637s-11.637-5.211-11.637-11.637 5.211-11.637 11.637-11.637 11.637 5.211 11.637 11.637zm46.543-69.816c0 6.425-5.207 11.632-11.637 11.632-6.426 0-11.637-5.207-11.637-11.632 0-6.43 5.211-11.637 11.637-11.637 6.43 0 11.637 5.207 11.637 11.637zm46.547 116.363c0 6.426-5.211 11.633-11.637 11.633s-11.637-5.207-11.637-11.633c0-6.43 5.211-11.637 11.637-11.637s11.637 5.207 11.637 11.637zm0 0" fill="#d65128"/></svg>