<svg xmlns="http://www.w3.org/2000/svg" viewBox="0 0 512 512" style="enable-background:new 0 0 512 512" xml:space="preserve"><path style="fill:#366db6" d="M356.571 27.429c-85.842 0-155.429 20.471-155.429 45.714V128c63.525 5.742 100.498 16 100.498 36.571 0 2.359-.585 7.013.073 7.077-.027 0-.055 0-.073-.009V384c0 2.35-.795 4.645-1.957 6.903 15.031 1.426 40.229 2.24 56.887 2.24 85.842 0 155.429-20.471 155.429-45.714V73.143c.001-25.244-69.585-45.714-155.428-45.714z"/><ellipse style="fill:#366db6" cx="356.571" cy="54.857" rx="155.429" ry="45.714"/><path style="fill:#1f436d" d="M356.571 100.571c-85.842 0-155.429-20.471-155.429-45.714v66.021c63.525 5.742 109.714 23.131 109.714 43.694 0 2.359-.795 4.663-1.975 6.93 15.04 1.426 31.04 2.213 47.689 2.213C442.414 173.714 512 153.243 512 128V54.857c0 25.244-69.586 45.714-155.429 45.714zm0 146.286c-15.945 0-31.241-.759-45.714-2.075v66.075c0 2.35-.795 4.645-1.957 6.903a505.83 505.83 0 0 0 47.671 2.24C442.414 320 512 299.529 512 274.286v-73.143c0 25.243-69.586 45.714-155.429 45.714z"/><path style="fill:#366db6" d="M356.571 320c-15.945 0-31.241-.759-45.714-2.075V384c0 2.35-.795 4.645-1.957 6.903a505.83 505.83 0 0 0 47.671 2.24c85.842 0 155.429-20.471 155.429-45.714v-73.143C512 299.529 442.414 320 356.571 320zm0-146.286c-15.945 0-31.241-.759-45.714-2.075v66.075c0 2.35-.795 4.645-1.957 6.903a505.83 505.83 0 0 0 47.671 2.24c85.842 0 155.429-20.471 155.429-45.714V128c0 25.243-69.586 45.714-155.429 45.714z"/><path style="fill:#dc691d" d="M155.429 137.143C69.586 137.143 0 157.614 0 182.857v274.286c0 25.243 69.586 45.714 155.429 45.714s155.429-20.471 155.429-45.714V182.857c-.001-25.243-69.587-45.714-155.429-45.714z"/><ellipse style="fill:#ebba16" cx="155.429" cy="164.571" rx="155.429" ry="45.714"/><path style="fill:#ed8a19" d="M155.429 210.286C69.586 210.286 0 189.815 0 164.571v73.143c0 25.243 69.586 45.714 155.429 45.714s155.429-20.471 155.429-45.714v-73.143c-.001 25.244-69.587 45.715-155.429 45.715z"/><path style="fill:#dc691d" d="M155.429 283.429C69.586 283.429 0 262.958 0 237.714v73.143c0 25.243 69.586 45.714 155.429 45.714s155.429-20.471 155.429-45.714v-73.143c-.001 25.244-69.587 45.715-155.429 45.715z"/><path style="fill:#c5411e" d="M155.429 356.571C69.586 356.571 0 336.101 0 310.857V384c0 25.243 69.586 45.714 155.429 45.714S310.857 409.243 310.857 384v-73.143c0 25.244-69.586 45.714-155.428 45.714z"/><path style="fill:#a03520" d="M155.429 429.714C69.586 429.714 0 409.243 0 384v73.143c0 25.243 69.586 45.714 155.429 45.714s155.429-20.471 155.429-45.714V384c-.001 25.243-69.587 45.714-155.429 45.714z"/></svg>